<?xml version="1.0" encoding="utf-8"?>
<!-- Generator: Adobe Illustrator 27.5.0, SVG Export Plug-In . SVG Version: 6.00 Build 0)  -->
<svg version="1.1" xmlns="http://www.w3.org/2000/svg" xmlns:xlink="http://www.w3.org/1999/xlink" x="0px" y="0px"
	 viewBox="0 0 750 500" style="enable-background:new 0 0 750 500;" xml:space="preserve">
<g id="BACKGROUND">
	<g>
		<defs>
			<rect id="SVGID_1_" width="750" height="500"/>
		</defs>
		<clipPath id="SVGID_00000146483190267976501350000011064279880399454593_">
			<use xlink:href="#SVGID_1_"  style="overflow:visible;"/>
		</clipPath>
		<g style="clip-path:url(#SVGID_00000146483190267976501350000011064279880399454593_);">
			<rect style="fill:#F2F2F2;" width="750" height="500"/>
			<g>
				<path style="fill-rule:evenodd;clip-rule:evenodd;fill:#F7931E;" d="M108.06,246.033h129.848
					c17.477,0,31.644-12.589,31.644-28.119V62.12c0-15.529-14.167-28.118-31.644-28.118H108.06
					c-17.477,0-31.644,12.589-31.644,28.118v155.794C76.416,233.444,90.583,246.033,108.06,246.033z"/>
			</g>
			<g>
				<path style="fill-rule:evenodd;clip-rule:evenodd;fill:#93278F;" d="M108.06,465.998h129.848
					c17.477,0,31.644-12.589,31.644-28.118V282.085c0-15.53-14.167-28.119-31.644-28.119H108.06
					c-17.477,0-31.644,12.589-31.644,28.119v155.794C76.416,453.409,90.583,465.998,108.06,465.998z"/>
			</g>
			<g>
				<path style="fill-rule:evenodd;clip-rule:evenodd;fill:#93278F;" d="M310.047,246.033h129.848
					c17.477,0,31.644-12.589,31.644-28.119V62.12c0-15.529-14.168-28.118-31.644-28.118H310.047
					c-17.477,0-31.644,12.589-31.644,28.118v155.794C278.403,233.444,292.571,246.033,310.047,246.033z"/>
			</g>
			<g>
				<path style="fill-rule:evenodd;clip-rule:evenodd;fill:#F7931E;" d="M310.047,465.998h129.848
					c17.477,0,31.644-12.589,31.644-28.118V282.085c0-15.53-14.168-28.119-31.644-28.119H310.047
					c-17.477,0-31.644,12.589-31.644,28.119v155.794C278.403,453.409,292.571,465.998,310.047,465.998z"/>
			</g>
			<g>
				<path style="fill-rule:evenodd;clip-rule:evenodd;fill:#F7931E;" d="M512.092,246.033H641.94
					c17.477,0,31.644-12.589,31.644-28.119V62.12c0-15.529-14.168-28.118-31.644-28.118H512.092
					c-17.477,0-31.644,12.589-31.644,28.118v155.794C480.448,233.444,494.616,246.033,512.092,246.033z"/>
			</g>
			<g>
				<path style="fill-rule:evenodd;clip-rule:evenodd;fill:#93278F;" d="M512.092,465.998H641.94
					c17.477,0,31.644-12.589,31.644-28.118V282.085c0-15.53-14.168-28.119-31.644-28.119H512.092
					c-17.477,0-31.644,12.589-31.644,28.119v155.794C480.448,453.409,494.616,465.998,512.092,465.998z"/>
			</g>
			
				<text transform="matrix(1.1254 0 0 1 133.9489 76.8282)" style="fill:#FFFFFF; font-family:'FredokaOne-Regular'; font-size:18px;">Monday</text>
			
				<text transform="matrix(1.1254 0 0 1 333.8805 76.8282)" style="fill:#FFFFFF; font-family:'FredokaOne-Regular'; font-size:18px;">Tuesday</text>
			
				<text transform="matrix(1.1254 0 0 1 520.8448 76.8282)" style="fill:#FFFFFF; font-family:'FredokaOne-Regular'; font-size:18px;">Wednesday</text>
			
				<text transform="matrix(1.1254 0 0 1 125.9272 288.8389)" style="fill:#FFFFFF; font-family:'FredokaOne-Regular'; font-size:18px;">Thursday</text>
			
				<text transform="matrix(1.1254 0 0 1 343.9076 288.8389)" style="fill:#FFFFFF; font-family:'FredokaOne-Regular'; font-size:18px;">Friday</text>
			
				<text transform="matrix(1.1254 0 0 1 532.0572 288.8389)" style="fill:#FFFFFF; font-family:'FredokaOne-Regular'; font-size:18px;">Saturday</text>
			<g>
				<g>
					<line style="fill:none;stroke:#FFFFFF;stroke-miterlimit:10;" x1="235.246" y1="302.575" x2="109.012" y2="303.304"/>
					<line style="fill:none;stroke:#FFFFFF;stroke-miterlimit:10;" x1="109.429" y1="335.143" x2="235.664" y2="334.411"/>
					<line style="fill:none;stroke:#FFFFFF;stroke-miterlimit:10;" x1="236.107" y1="370.31" x2="109.872" y2="371.04"/>
					<line style="fill:none;stroke:#FFFFFF;stroke-miterlimit:10;" x1="110.29" y1="402.879" x2="236.525" y2="402.147"/>
					<line style="fill:none;stroke:#FFFFFF;stroke-miterlimit:10;" x1="110.72" y1="436.746" x2="236.955" y2="436.016"/>
				</g>
				<g>
					<line style="fill:none;stroke:#FFFFFF;stroke-miterlimit:10;" x1="437.234" y1="302.575" x2="310.999" y2="303.304"/>
					<line style="fill:none;stroke:#FFFFFF;stroke-miterlimit:10;" x1="311.417" y1="335.143" x2="437.652" y2="334.411"/>
					<line style="fill:none;stroke:#FFFFFF;stroke-miterlimit:10;" x1="438.094" y1="370.31" x2="311.859" y2="371.04"/>
					<line style="fill:none;stroke:#FFFFFF;stroke-miterlimit:10;" x1="312.277" y1="402.879" x2="438.513" y2="402.147"/>
					<line style="fill:none;stroke:#FFFFFF;stroke-miterlimit:10;" x1="312.707" y1="436.746" x2="438.943" y2="436.016"/>
				</g>
				<g>
					<line style="fill:none;stroke:#FFFFFF;stroke-miterlimit:10;" x1="639.279" y1="302.575" x2="513.045" y2="303.304"/>
					<line style="fill:none;stroke:#FFFFFF;stroke-miterlimit:10;" x1="513.462" y1="335.143" x2="639.697" y2="334.411"/>
					<line style="fill:none;stroke:#FFFFFF;stroke-miterlimit:10;" x1="640.14" y1="370.31" x2="513.905" y2="371.04"/>
					<line style="fill:none;stroke:#FFFFFF;stroke-miterlimit:10;" x1="514.323" y1="402.879" x2="640.558" y2="402.147"/>
					<line style="fill:none;stroke:#FFFFFF;stroke-miterlimit:10;" x1="514.753" y1="436.746" x2="640.988" y2="436.016"/>
				</g>
				<g>
					<line style="fill:none;stroke:#FFFFFF;stroke-miterlimit:10;" x1="235.246" y1="87.893" x2="109.012" y2="88.623"/>
					<line style="fill:none;stroke:#FFFFFF;stroke-miterlimit:10;" x1="109.429" y1="120.462" x2="235.664" y2="119.73"/>
					<line style="fill:none;stroke:#FFFFFF;stroke-miterlimit:10;" x1="236.107" y1="155.629" x2="109.872" y2="156.359"/>
					<line style="fill:none;stroke:#FFFFFF;stroke-miterlimit:10;" x1="110.29" y1="188.197" x2="236.525" y2="187.466"/>
					<line style="fill:none;stroke:#FFFFFF;stroke-miterlimit:10;" x1="110.72" y1="222.064" x2="236.955" y2="221.335"/>
				</g>
				<g>
					<line style="fill:none;stroke:#FFFFFF;stroke-miterlimit:10;" x1="437.234" y1="87.893" x2="310.999" y2="88.623"/>
					<line style="fill:none;stroke:#FFFFFF;stroke-miterlimit:10;" x1="311.417" y1="120.462" x2="437.652" y2="119.73"/>
					<line style="fill:none;stroke:#FFFFFF;stroke-miterlimit:10;" x1="438.094" y1="155.629" x2="311.859" y2="156.359"/>
					<line style="fill:none;stroke:#FFFFFF;stroke-miterlimit:10;" x1="312.277" y1="188.197" x2="438.513" y2="187.466"/>
					<line style="fill:none;stroke:#FFFFFF;stroke-miterlimit:10;" x1="312.707" y1="222.064" x2="438.943" y2="221.335"/>
				</g>
				<g>
					<line style="fill:none;stroke:#FFFFFF;stroke-miterlimit:10;" x1="639.279" y1="87.893" x2="513.045" y2="88.623"/>
					<line style="fill:none;stroke:#FFFFFF;stroke-miterlimit:10;" x1="513.462" y1="120.462" x2="639.697" y2="119.73"/>
					<line style="fill:none;stroke:#FFFFFF;stroke-miterlimit:10;" x1="640.14" y1="155.629" x2="513.905" y2="156.359"/>
					<line style="fill:none;stroke:#FFFFFF;stroke-miterlimit:10;" x1="514.323" y1="188.197" x2="640.558" y2="187.466"/>
					<line style="fill:none;stroke:#FFFFFF;stroke-miterlimit:10;" x1="514.753" y1="222.064" x2="640.988" y2="221.335"/>
				</g>
			</g>
			<g>
				<g>
					<path style="fill-rule:evenodd;clip-rule:evenodd;fill:#58B9E2;" d="M393.75,450.043l196.799,73.489
						c1.152,0.43,1.743,1.725,1.313,2.877l-14.881,39.851c-0.43,1.152-1.725,1.743-2.877,1.313l-196.799-73.49
						c-1.152-0.43-1.743-1.725-1.313-2.877l14.882-39.851C391.303,450.204,392.598,449.613,393.75,450.043z"/>
				</g>
				<g>
					<path style="fill-rule:evenodd;clip-rule:evenodd;fill:#29ABE2;" d="M587.507,538.071l-10.527,28.19
						c-0.43,1.152-1.725,1.743-2.877,1.313l-196.799-73.49c-1.152-0.43-1.743-1.725-1.313-2.877l10.527-28.19L587.507,538.071z"/>
				</g>
				<g>
					<g>
						
							<rect x="389.873" y="454.73" transform="matrix(0.3499 -0.9368 0.9368 0.3499 -170.3684 664.2671)" style="fill-rule:evenodd;clip-rule:evenodd;fill:#231F20;" width="7.057" height="0.298"/>
					</g>
					<g>
						
							<rect x="393.163" y="453.846" transform="matrix(0.35 -0.9368 0.9368 0.35 -168.379 665.3347)" style="fill-rule:evenodd;clip-rule:evenodd;fill:#231F20;" width="4.124" height="0.298"/>
					</g>
					<g>
						
							<rect x="394.474" y="454.336" transform="matrix(0.3499 -0.9368 0.9368 0.3499 -167.9605 666.9473)" style="fill-rule:evenodd;clip-rule:evenodd;fill:#231F20;" width="4.124" height="0.298"/>
					</g>
					<g>
						
							<rect x="395.785" y="454.825" transform="matrix(0.3499 -0.9368 0.9368 0.3499 -167.5668 668.4937)" style="fill-rule:evenodd;clip-rule:evenodd;fill:#231F20;" width="4.124" height="0.298"/>
					</g>
					<g>
						
							<rect x="397.096" y="455.315" transform="matrix(0.3499 -0.9368 0.9368 0.3499 -167.1731 670.0401)" style="fill-rule:evenodd;clip-rule:evenodd;fill:#231F20;" width="4.124" height="0.298"/>
					</g>
					<g>
						
							<rect x="397.392" y="456.509" transform="matrix(0.3499 -0.9368 0.9368 0.3499 -167.6102 671.798)" style="fill-rule:evenodd;clip-rule:evenodd;fill:#231F20;" width="5.628" height="0.298"/>
					</g>
					<g>
						
							<rect x="399.718" y="456.294" transform="matrix(0.3496 -0.9369 0.9369 0.3496 -166.3175 673.3116)" style="fill-rule:evenodd;clip-rule:evenodd;fill:#231F20;" width="4.124" height="0.298"/>
					</g>
					<g>
						
							<rect x="401.029" y="456.783" transform="matrix(0.3499 -0.9368 0.9368 0.3499 -165.9921 674.6793)" style="fill-rule:evenodd;clip-rule:evenodd;fill:#231F20;" width="4.124" height="0.298"/>
					</g>
					<g>
						
							<rect x="402.34" y="457.273" transform="matrix(0.3501 -0.9367 0.9367 0.3501 -165.6414 676.1135)" style="fill-rule:evenodd;clip-rule:evenodd;fill:#231F20;" width="4.124" height="0.298"/>
					</g>
					<g>
						
							<rect x="403.651" y="457.762" transform="matrix(0.35 -0.9368 0.9368 0.35 -165.2304 677.7051)" style="fill-rule:evenodd;clip-rule:evenodd;fill:#231F20;" width="4.124" height="0.298"/>
					</g>
					<g>
						
							<rect x="402.983" y="459.626" transform="matrix(0.35 -0.9368 0.9368 0.35 -166.4574 679.6638)" style="fill-rule:evenodd;clip-rule:evenodd;fill:#231F20;" width="7.057" height="0.298"/>
					</g>
					<g>
						
							<rect x="406.12" y="458.684" transform="matrix(0.3496 -0.9369 0.9369 0.3496 -164.3933 680.8648)" style="fill-rule:evenodd;clip-rule:evenodd;fill:#231F20;" width="4.124" height="0.298"/>
					</g>
					<g>
						
							<rect x="407.431" y="459.174" transform="matrix(0.35 -0.9368 0.9368 0.35 -164.0956 682.1636)" style="fill-rule:evenodd;clip-rule:evenodd;fill:#231F20;" width="4.124" height="0.298"/>
					</g>
					<g>
						
							<rect x="408.742" y="459.664" transform="matrix(0.3499 -0.9368 0.9368 0.3499 -163.6758 683.7774)" style="fill-rule:evenodd;clip-rule:evenodd;fill:#231F20;" width="4.124" height="0.298"/>
					</g>
					<g>
						
							<rect x="410.053" y="460.153" transform="matrix(0.3499 -0.9368 0.9368 0.3499 -163.282 685.3239)" style="fill-rule:evenodd;clip-rule:evenodd;fill:#231F20;" width="4.124" height="0.298"/>
					</g>
					<g>
						
							<rect x="410.349" y="461.347" transform="matrix(0.3501 -0.9367 0.9367 0.3501 -163.7636 686.9681)" style="fill-rule:evenodd;clip-rule:evenodd;fill:#231F20;" width="5.628" height="0.298"/>
					</g>
					<g>
						
							<rect x="412.675" y="461.132" transform="matrix(0.3496 -0.9369 0.9369 0.3496 -162.4231 688.5983)" style="fill-rule:evenodd;clip-rule:evenodd;fill:#231F20;" width="4.124" height="0.298"/>
					</g>
					<g>
						
							<rect x="413.986" y="461.622" transform="matrix(0.3496 -0.9369 0.9369 0.3496 -162.0292 690.1448)" style="fill-rule:evenodd;clip-rule:evenodd;fill:#231F20;" width="4.124" height="0.298"/>
					</g>
					<g>
						
							<rect x="415.297" y="462.111" transform="matrix(0.3499 -0.9368 0.9368 0.3499 -161.7073 691.5094)" style="fill-rule:evenodd;clip-rule:evenodd;fill:#231F20;" width="4.124" height="0.298"/>
					</g>
					<g>
						
							<rect x="416.608" y="462.601" transform="matrix(0.3501 -0.9367 0.9367 0.3501 -161.3589 692.9416)" style="fill-rule:evenodd;clip-rule:evenodd;fill:#231F20;" width="4.124" height="0.298"/>
					</g>
					<g>
						
							<rect x="415.94" y="464.464" transform="matrix(0.3499 -0.9368 0.9368 0.3499 -162.5404 695.0148)" style="fill-rule:evenodd;clip-rule:evenodd;fill:#231F20;" width="7.057" height="0.298"/>
					</g>
					<g>
						
							<rect x="419.077" y="463.523" transform="matrix(0.3496 -0.9369 0.9369 0.3496 -160.4989 696.1514)" style="fill-rule:evenodd;clip-rule:evenodd;fill:#231F20;" width="4.124" height="0.298"/>
					</g>
					<g>
						
							<rect x="420.388" y="464.012" transform="matrix(0.3499 -0.9368 0.9368 0.3499 -160.1784 697.5148)" style="fill-rule:evenodd;clip-rule:evenodd;fill:#231F20;" width="4.124" height="0.298"/>
					</g>
					<g>
						
							<rect x="421.699" y="464.502" transform="matrix(0.35 -0.9368 0.9368 0.35 -159.8122 698.9926)" style="fill-rule:evenodd;clip-rule:evenodd;fill:#231F20;" width="4.124" height="0.298"/>
					</g>
					<g>
						
							<rect x="423.01" y="464.992" transform="matrix(0.3499 -0.9368 0.9368 0.3499 -159.3909 700.6075)" style="fill-rule:evenodd;clip-rule:evenodd;fill:#231F20;" width="4.124" height="0.298"/>
					</g>
					<g>
						
							<rect x="423.306" y="466.185" transform="matrix(0.3502 -0.9367 0.9367 0.3502 -159.9023 702.1812)" style="fill-rule:evenodd;clip-rule:evenodd;fill:#231F20;" width="5.628" height="0.298"/>
					</g>
					<g>
						
							<rect x="425.632" y="465.971" transform="matrix(0.3496 -0.9369 0.9369 0.3496 -158.5288 703.8848)" style="fill-rule:evenodd;clip-rule:evenodd;fill:#231F20;" width="4.124" height="0.298"/>
					</g>
					<g>
						
							<rect x="426.943" y="466.46" transform="matrix(0.3496 -0.9369 0.9369 0.3496 -158.1348 705.4315)" style="fill-rule:evenodd;clip-rule:evenodd;fill:#231F20;" width="4.124" height="0.298"/>
					</g>
					<g>
						
							<rect x="428.254" y="466.95" transform="matrix(0.3499 -0.9368 0.9368 0.3499 -157.8162 706.7932)" style="fill-rule:evenodd;clip-rule:evenodd;fill:#231F20;" width="4.124" height="0.298"/>
					</g>
					<g>
						
							<rect x="429.565" y="467.439" transform="matrix(0.3498 -0.9368 0.9368 0.3498 -157.3942 708.4088)" style="fill-rule:evenodd;clip-rule:evenodd;fill:#231F20;" width="4.124" height="0.298"/>
					</g>
					<g>
						
							<rect x="428.897" y="469.303" transform="matrix(0.3499 -0.9368 0.9368 0.3499 -158.6494 710.2985)" style="fill-rule:evenodd;clip-rule:evenodd;fill:#231F20;" width="7.057" height="0.298"/>
					</g>
					<g>
						
							<rect x="432.034" y="468.361" transform="matrix(0.3496 -0.9369 0.9369 0.3496 -156.6046 711.4379)" style="fill-rule:evenodd;clip-rule:evenodd;fill:#231F20;" width="4.124" height="0.298"/>
					</g>
					<g>
						
							<rect x="433.345" y="468.851" transform="matrix(0.3499 -0.9368 0.9368 0.3499 -156.2873 712.7985)" style="fill-rule:evenodd;clip-rule:evenodd;fill:#231F20;" width="4.124" height="0.298"/>
					</g>
					<g>
						
							<rect x="434.656" y="469.34" transform="matrix(0.3502 -0.9367 0.9367 0.3502 -155.9706 714.1585)" style="fill-rule:evenodd;clip-rule:evenodd;fill:#231F20;" width="4.124" height="0.298"/>
					</g>
					<g>
						
							<rect x="435.967" y="469.83" transform="matrix(0.35 -0.9368 0.9368 0.35 -155.5288 715.8215)" style="fill-rule:evenodd;clip-rule:evenodd;fill:#231F20;" width="4.124" height="0.298"/>
					</g>
					<g>
						
							<rect x="436.263" y="471.024" transform="matrix(0.3499 -0.9368 0.9368 0.3499 -155.937 717.6492)" style="fill-rule:evenodd;clip-rule:evenodd;fill:#231F20;" width="5.628" height="0.298"/>
					</g>
					<g>
						
							<rect x="438.589" y="470.809" transform="matrix(0.3496 -0.9369 0.9369 0.3496 -154.6345 719.1713)" style="fill-rule:evenodd;clip-rule:evenodd;fill:#231F20;" width="4.124" height="0.298"/>
					</g>
					<g>
						
							<rect x="439.9" y="471.299" transform="matrix(0.3496 -0.9369 0.9369 0.3496 -154.2404 720.718)" style="fill-rule:evenodd;clip-rule:evenodd;fill:#231F20;" width="4.124" height="0.298"/>
					</g>
					<g>
						
							<rect x="441.211" y="471.788" transform="matrix(0.35 -0.9368 0.9368 0.35 -153.9546 722.0067)" style="fill-rule:evenodd;clip-rule:evenodd;fill:#231F20;" width="4.124" height="0.298"/>
					</g>
					<g>
						
							<rect x="442.522" y="472.278" transform="matrix(0.3498 -0.9368 0.9368 0.3498 -153.5019 723.6935)" style="fill-rule:evenodd;clip-rule:evenodd;fill:#231F20;" width="4.124" height="0.298"/>
					</g>
					<g>
						
							<rect x="441.854" y="474.141" transform="matrix(0.35 -0.9368 0.9368 0.35 -154.7878 725.5117)" style="fill-rule:evenodd;clip-rule:evenodd;fill:#231F20;" width="7.057" height="0.298"/>
					</g>
					<g>
						
							<rect x="444.991" y="473.2" transform="matrix(0.3496 -0.9369 0.9369 0.3496 -152.7102 726.7246)" style="fill-rule:evenodd;clip-rule:evenodd;fill:#231F20;" width="4.124" height="0.298"/>
					</g>
					<g>
						
							<rect x="446.302" y="473.689" transform="matrix(0.3495 -0.9369 0.9369 0.3495 -152.2864 728.3417)" style="fill-rule:evenodd;clip-rule:evenodd;fill:#231F20;" width="4.124" height="0.298"/>
					</g>
					<g>
						
							<rect x="447.613" y="474.179" transform="matrix(0.3499 -0.9368 0.9368 0.3499 -152.0025 729.6286)" style="fill-rule:evenodd;clip-rule:evenodd;fill:#231F20;" width="4.124" height="0.298"/>
					</g>
					<g>
						
							<rect x="448.924" y="474.668" transform="matrix(0.3502 -0.9367 0.9367 0.3502 -151.6894 730.9855)" style="fill-rule:evenodd;clip-rule:evenodd;fill:#231F20;" width="4.124" height="0.298"/>
					</g>
					<g>
						
							<rect x="449.22" y="475.862" transform="matrix(0.3502 -0.9367 0.9367 0.3502 -152.1267 732.7429)" style="fill-rule:evenodd;clip-rule:evenodd;fill:#231F20;" width="5.628" height="0.298"/>
					</g>
					<g>
						
							<rect x="451.546" y="475.648" transform="matrix(0.3496 -0.9369 0.9369 0.3496 -150.7401 734.4579)" style="fill-rule:evenodd;clip-rule:evenodd;fill:#231F20;" width="4.124" height="0.298"/>
					</g>
					<g>
						
							<rect x="452.857" y="476.137" transform="matrix(0.3496 -0.9369 0.9369 0.3496 -150.3461 736.0046)" style="fill-rule:evenodd;clip-rule:evenodd;fill:#231F20;" width="4.124" height="0.298"/>
					</g>
					<g>
						
							<rect x="454.168" y="476.627" transform="matrix(0.3499 -0.9368 0.9368 0.3499 -150.0341 737.3606)" style="fill-rule:evenodd;clip-rule:evenodd;fill:#231F20;" width="4.124" height="0.298"/>
					</g>
					<g>
						
							<rect x="455.479" y="477.116" transform="matrix(0.35 -0.9368 0.9368 0.35 -149.6711 738.8356)" style="fill-rule:evenodd;clip-rule:evenodd;fill:#231F20;" width="4.124" height="0.298"/>
					</g>
					<g>
						
							<rect x="454.811" y="478.98" transform="matrix(0.3499 -0.9368 0.9368 0.3499 -150.8672 740.866)" style="fill-rule:evenodd;clip-rule:evenodd;fill:#231F20;" width="7.057" height="0.298"/>
					</g>
					<g>
						
							<rect x="457.948" y="478.038" transform="matrix(0.3495 -0.9369 0.9369 0.3495 -148.7849 742.0825)" style="fill-rule:evenodd;clip-rule:evenodd;fill:#231F20;" width="4.124" height="0.298"/>
					</g>
					<g>
						
							<rect x="459.259" y="478.528" transform="matrix(0.3498 -0.9368 0.9368 0.3498 -148.4741 743.4376)" style="fill-rule:evenodd;clip-rule:evenodd;fill:#231F20;" width="4.124" height="0.298"/>
					</g>
					<g>
						
							<rect x="460.57" y="479.017" transform="matrix(0.35 -0.9368 0.9368 0.35 -148.1427 744.8406)" style="fill-rule:evenodd;clip-rule:evenodd;fill:#231F20;" width="4.124" height="0.298"/>
					</g>
					<g>
						
							<rect x="461.881" y="479.507" transform="matrix(0.3499 -0.9368 0.9368 0.3499 -147.7178 746.4587)" style="fill-rule:evenodd;clip-rule:evenodd;fill:#231F20;" width="4.124" height="0.298"/>
					</g>
					<g>
						
							<rect x="462.177" y="480.701" transform="matrix(0.3499 -0.9368 0.9368 0.3499 -148.1549 748.2166)" style="fill-rule:evenodd;clip-rule:evenodd;fill:#231F20;" width="5.628" height="0.298"/>
					</g>
					<g>
						
							<rect x="464.503" y="480.486" transform="matrix(0.3499 -0.9368 0.9368 0.3499 -146.9303 749.5515)" style="fill-rule:evenodd;clip-rule:evenodd;fill:#231F20;" width="4.124" height="0.298"/>
					</g>
					<g>
						
							<rect x="465.814" y="480.976" transform="matrix(0.3496 -0.9369 0.9369 0.3496 -146.4517 751.2912)" style="fill-rule:evenodd;clip-rule:evenodd;fill:#231F20;" width="4.124" height="0.298"/>
					</g>
					<g>
						
							<rect x="467.125" y="481.465" transform="matrix(0.3499 -0.9368 0.9368 0.3499 -146.143 752.6443)" style="fill-rule:evenodd;clip-rule:evenodd;fill:#231F20;" width="4.124" height="0.298"/>
					</g>
					<g>
						
							<rect x="468.436" y="481.955" transform="matrix(0.3499 -0.9368 0.9368 0.3499 -145.7493 754.1907)" style="fill-rule:evenodd;clip-rule:evenodd;fill:#231F20;" width="4.124" height="0.298"/>
					</g>
					<g>
						
							<rect x="467.768" y="483.818" transform="matrix(0.3499 -0.9368 0.9368 0.3499 -146.9762 756.1497)" style="fill-rule:evenodd;clip-rule:evenodd;fill:#231F20;" width="7.057" height="0.298"/>
					</g>
					<g>
						
							<rect x="470.905" y="482.877" transform="matrix(0.3495 -0.9369 0.9369 0.3495 -144.8893 757.3702)" style="fill-rule:evenodd;clip-rule:evenodd;fill:#231F20;" width="4.124" height="0.298"/>
					</g>
					<g>
						
							<rect x="472.216" y="483.366" transform="matrix(0.3496 -0.9369 0.9369 0.3496 -144.5275 758.8443)" style="fill-rule:evenodd;clip-rule:evenodd;fill:#231F20;" width="4.124" height="0.298"/>
					</g>
					<g>
						
							<rect x="473.527" y="483.856" transform="matrix(0.3501 -0.9367 0.9367 0.3501 -144.2748 760.074)" style="fill-rule:evenodd;clip-rule:evenodd;fill:#231F20;" width="4.124" height="0.298"/>
					</g>
					<g>
						
							<rect x="474.838" y="484.345" transform="matrix(0.35 -0.9368 0.9368 0.35 -143.8593 761.6696)" style="fill-rule:evenodd;clip-rule:evenodd;fill:#231F20;" width="4.124" height="0.298"/>
					</g>
					<g>
						
							<rect x="475.135" y="485.539" transform="matrix(0.35 -0.9368 0.9368 0.35 -144.2965 763.4272)" style="fill-rule:evenodd;clip-rule:evenodd;fill:#231F20;" width="5.628" height="0.298"/>
					</g>
					<g>
						
							<rect x="477.46" y="485.324" transform="matrix(0.3502 -0.9367 0.9367 0.3502 -143.1271 764.6395)" style="fill-rule:evenodd;clip-rule:evenodd;fill:#231F20;" width="4.124" height="0.298"/>
					</g>
					<g>
						
							<rect x="478.771" y="485.814" transform="matrix(0.3496 -0.9369 0.9369 0.3496 -142.5574 766.5778)" style="fill-rule:evenodd;clip-rule:evenodd;fill:#231F20;" width="4.124" height="0.298"/>
					</g>
					<g>
						
							<rect x="480.082" y="486.304" transform="matrix(0.3497 -0.9369 0.9369 0.3497 -142.1964 768.0511)" style="fill-rule:evenodd;clip-rule:evenodd;fill:#231F20;" width="4.124" height="0.298"/>
					</g>
					<g>
						
							<rect x="481.393" y="486.793" transform="matrix(0.3502 -0.9367 0.9367 0.3502 -141.9471 769.2778)" style="fill-rule:evenodd;clip-rule:evenodd;fill:#231F20;" width="4.124" height="0.298"/>
					</g>
					<g>
						
							<rect x="480.725" y="488.657" transform="matrix(0.3501 -0.9367 0.9367 0.3501 -143.1408 771.3098)" style="fill-rule:evenodd;clip-rule:evenodd;fill:#231F20;" width="7.057" height="0.298"/>
					</g>
					<g>
						
							<rect x="483.862" y="487.715" transform="matrix(0.3495 -0.9369 0.9369 0.3495 -140.9938 772.6578)" style="fill-rule:evenodd;clip-rule:evenodd;fill:#231F20;" width="4.124" height="0.298"/>
					</g>
					<g>
						
							<rect x="485.173" y="488.205" transform="matrix(0.3496 -0.9369 0.9369 0.3496 -140.6332 774.1309)" style="fill-rule:evenodd;clip-rule:evenodd;fill:#231F20;" width="4.124" height="0.298"/>
					</g>
					<g>
						
							<rect x="486.484" y="488.694" transform="matrix(0.3498 -0.9368 0.9368 0.3498 -140.2957 775.5536)" style="fill-rule:evenodd;clip-rule:evenodd;fill:#231F20;" width="4.124" height="0.298"/>
					</g>
					<g>
						
							<rect x="487.795" y="489.184" transform="matrix(0.3502 -0.9367 0.9367 0.3502 -140.0261 776.8281)" style="fill-rule:evenodd;clip-rule:evenodd;fill:#231F20;" width="4.124" height="0.298"/>
					</g>
					<g>
						
							<rect x="488.092" y="490.378" transform="matrix(0.3502 -0.9367 0.9367 0.3502 -140.4634 778.5856)" style="fill-rule:evenodd;clip-rule:evenodd;fill:#231F20;" width="5.628" height="0.298"/>
					</g>
					<g>
						
							<rect x="490.417" y="490.163" transform="matrix(0.35 -0.9368 0.9368 0.35 -139.1823 780.0448)" style="fill-rule:evenodd;clip-rule:evenodd;fill:#231F20;" width="4.124" height="0.298"/>
					</g>
					<g>
						
							<rect x="491.728" y="490.653" transform="matrix(0.3499 -0.9368 0.9368 0.3499 -138.7546 781.6653)" style="fill-rule:evenodd;clip-rule:evenodd;fill:#231F20;" width="4.124" height="0.298"/>
					</g>
					<g>
						
							<rect x="493.039" y="491.142" transform="matrix(0.3496 -0.9369 0.9369 0.3496 -138.269 783.411)" style="fill-rule:evenodd;clip-rule:evenodd;fill:#231F20;" width="4.124" height="0.298"/>
					</g>
					<g>
						
							<rect x="494.35" y="491.632" transform="matrix(0.35 -0.9368 0.9368 0.35 -138.0016 784.6836)" style="fill-rule:evenodd;clip-rule:evenodd;fill:#231F20;" width="4.124" height="0.298"/>
					</g>
					<g>
						
							<rect x="493.682" y="493.495" transform="matrix(0.3499 -0.9368 0.9368 0.3499 -139.1941 786.7172)" style="fill-rule:evenodd;clip-rule:evenodd;fill:#231F20;" width="7.057" height="0.298"/>
					</g>
					<g>
						
							<rect x="496.819" y="492.554" transform="matrix(0.3496 -0.9369 0.9369 0.3496 -137.1328 787.8708)" style="fill-rule:evenodd;clip-rule:evenodd;fill:#231F20;" width="4.124" height="0.298"/>
					</g>
					<g>
						
							<rect x="498.13" y="493.043" transform="matrix(0.3497 -0.9369 0.9369 0.3497 -136.7736 789.3427)" style="fill-rule:evenodd;clip-rule:evenodd;fill:#231F20;" width="4.124" height="0.298"/>
					</g>
					<g>
						
							<rect x="499.441" y="493.533" transform="matrix(0.3498 -0.9368 0.9368 0.3498 -136.4034 790.8384)" style="fill-rule:evenodd;clip-rule:evenodd;fill:#231F20;" width="4.124" height="0.298"/>
					</g>
					<g>
						
							<rect x="500.753" y="494.022" transform="matrix(0.3499 -0.9368 0.9368 0.3499 -136.0446 792.3099)" style="fill-rule:evenodd;clip-rule:evenodd;fill:#231F20;" width="4.124" height="0.298"/>
					</g>
					<g>
						
							<rect x="501.049" y="495.216" transform="matrix(0.3499 -0.9368 0.9368 0.3499 -136.4817 794.0677)" style="fill-rule:evenodd;clip-rule:evenodd;fill:#231F20;" width="5.628" height="0.298"/>
					</g>
					<g>
						
							<rect x="503.374" y="495.001" transform="matrix(0.35 -0.9368 0.9368 0.35 -135.2924 795.3274)" style="fill-rule:evenodd;clip-rule:evenodd;fill:#231F20;" width="4.124" height="0.298"/>
					</g>
					<g>
						
							<rect x="504.685" y="495.491" transform="matrix(0.3496 -0.9369 0.9369 0.3496 -134.7686 797.1509)" style="fill-rule:evenodd;clip-rule:evenodd;fill:#231F20;" width="4.124" height="0.298"/>
					</g>
					<g>
						
							<rect x="505.996" y="495.98" transform="matrix(0.3496 -0.9369 0.9369 0.3496 -134.3746 798.6976)" style="fill-rule:evenodd;clip-rule:evenodd;fill:#231F20;" width="4.124" height="0.298"/>
					</g>
					<g>
						
							<rect x="507.307" y="496.47" transform="matrix(0.3496 -0.9369 0.9369 0.3496 -133.9806 800.2443)" style="fill-rule:evenodd;clip-rule:evenodd;fill:#231F20;" width="4.124" height="0.298"/>
					</g>
					<g>
						
							<rect x="506.639" y="498.333" transform="matrix(0.3495 -0.9369 0.9369 0.3495 -135.1718 802.2797)" style="fill-rule:evenodd;clip-rule:evenodd;fill:#231F20;" width="7.057" height="0.298"/>
					</g>
					<g>
						
							<rect x="509.776" y="497.392" transform="matrix(0.3502 -0.9367 0.9367 0.3502 -133.4306 802.7515)" style="fill-rule:evenodd;clip-rule:evenodd;fill:#231F20;" width="4.124" height="0.298"/>
					</g>
					<g>
						
							<rect x="511.087" y="497.882" transform="matrix(0.3496 -0.9369 0.9369 0.3496 -132.8445 804.704)" style="fill-rule:evenodd;clip-rule:evenodd;fill:#231F20;" width="4.124" height="0.298"/>
					</g>
					<g>
						
							<rect x="512.398" y="498.371" transform="matrix(0.3496 -0.9369 0.9369 0.3496 -132.4504 806.2507)" style="fill-rule:evenodd;clip-rule:evenodd;fill:#231F20;" width="4.124" height="0.298"/>
					</g>
					<g>
						
							<rect x="513.709" y="498.861" transform="matrix(0.3501 -0.9367 0.9367 0.3501 -132.2143 807.466)" style="fill-rule:evenodd;clip-rule:evenodd;fill:#231F20;" width="4.124" height="0.298"/>
					</g>
					<g>
						
							<rect x="514.006" y="500.055" transform="matrix(0.35 -0.9368 0.9368 0.35 -132.627 809.2752)" style="fill-rule:evenodd;clip-rule:evenodd;fill:#231F20;" width="5.628" height="0.298"/>
					</g>
					<g>
						
							<rect x="516.331" y="499.84" transform="matrix(0.3501 -0.9367 0.9367 0.3501 -131.4273 810.5584)" style="fill-rule:evenodd;clip-rule:evenodd;fill:#231F20;" width="4.124" height="0.298"/>
					</g>
					<g>
						
							<rect x="517.642" y="500.329" transform="matrix(0.3499 -0.9368 0.9368 0.3499 -130.9724 812.2328)" style="fill-rule:evenodd;clip-rule:evenodd;fill:#231F20;" width="4.124" height="0.298"/>
					</g>
					<g>
						
							<rect x="518.953" y="500.819" transform="matrix(0.3496 -0.9369 0.9369 0.3496 -130.4803 813.9842)" style="fill-rule:evenodd;clip-rule:evenodd;fill:#231F20;" width="4.124" height="0.298"/>
					</g>
					<g>
						
							<rect x="520.264" y="501.309" transform="matrix(0.3496 -0.9369 0.9369 0.3496 -130.0862 815.5308)" style="fill-rule:evenodd;clip-rule:evenodd;fill:#231F20;" width="4.124" height="0.298"/>
					</g>
					<g>
						
							<rect x="519.596" y="503.172" transform="matrix(0.3496 -0.9369 0.9369 0.3496 -131.3131 817.4904)" style="fill-rule:evenodd;clip-rule:evenodd;fill:#231F20;" width="7.057" height="0.298"/>
					</g>
					<g>
						
							<rect x="522.734" y="502.231" transform="matrix(0.35 -0.9368 0.9368 0.35 -129.4806 818.1613)" style="fill-rule:evenodd;clip-rule:evenodd;fill:#231F20;" width="4.124" height="0.298"/>
					</g>
					<g>
						
							<rect x="524.044" y="502.72" transform="matrix(0.3499 -0.9368 0.9368 0.3499 -129.0499 819.7845)" style="fill-rule:evenodd;clip-rule:evenodd;fill:#231F20;" width="4.124" height="0.298"/>
					</g>
					<g>
						
							<rect x="525.355" y="503.21" transform="matrix(0.3496 -0.9369 0.9369 0.3496 -128.5561 821.5373)" style="fill-rule:evenodd;clip-rule:evenodd;fill:#231F20;" width="4.124" height="0.298"/>
					</g>
					<g>
						
							<rect x="526.666" y="503.699" transform="matrix(0.3502 -0.9367 0.9367 0.3502 -128.3628 822.6707)" style="fill-rule:evenodd;clip-rule:evenodd;fill:#231F20;" width="4.124" height="0.298"/>
					</g>
					<g>
						
							<rect x="526.963" y="504.893" transform="matrix(0.3496 -0.9369 0.9369 0.3496 -128.5989 824.8424)" style="fill-rule:evenodd;clip-rule:evenodd;fill:#231F20;" width="5.628" height="0.298"/>
					</g>
					<g>
						
							<rect x="529.288" y="504.678" transform="matrix(0.3498 -0.9368 0.9368 0.3498 -127.4373 826.0475)" style="fill-rule:evenodd;clip-rule:evenodd;fill:#231F20;" width="4.124" height="0.298"/>
					</g>
					<g>
						
							<rect x="530.599" y="505.168" transform="matrix(0.3499 -0.9368 0.9368 0.3499 -127.0813 827.5165)" style="fill-rule:evenodd;clip-rule:evenodd;fill:#231F20;" width="4.124" height="0.298"/>
					</g>
					<g>
						
							<rect x="531.91" y="505.657" transform="matrix(0.3496 -0.9369 0.9369 0.3496 -126.5859 829.2708)" style="fill-rule:evenodd;clip-rule:evenodd;fill:#231F20;" width="4.124" height="0.298"/>
					</g>
					<g>
						
							<rect x="533.221" y="506.147" transform="matrix(0.3496 -0.9369 0.9369 0.3496 -126.1919 830.8174)" style="fill-rule:evenodd;clip-rule:evenodd;fill:#231F20;" width="4.124" height="0.298"/>
					</g>
					<g>
						
							<rect x="532.553" y="508.01" transform="matrix(0.3496 -0.9369 0.9369 0.3496 -127.4188 832.777)" style="fill-rule:evenodd;clip-rule:evenodd;fill:#231F20;" width="7.057" height="0.298"/>
					</g>
					<g>
						
							<rect x="535.691" y="507.069" transform="matrix(0.3499 -0.9368 0.9368 0.3499 -125.5524 833.5219)" style="fill-rule:evenodd;clip-rule:evenodd;fill:#231F20;" width="4.124" height="0.298"/>
					</g>
					<g>
						
							<rect x="537.001" y="507.559" transform="matrix(0.3496 -0.9369 0.9369 0.3496 -125.0557 835.2772)" style="fill-rule:evenodd;clip-rule:evenodd;fill:#231F20;" width="4.124" height="0.298"/>
					</g>
					<g>
						
							<rect x="538.313" y="508.048" transform="matrix(0.3496 -0.9369 0.9369 0.3496 -124.6617 836.8239)" style="fill-rule:evenodd;clip-rule:evenodd;fill:#231F20;" width="4.124" height="0.298"/>
					</g>
					<g>
						
							<rect x="539.623" y="508.538" transform="matrix(0.3499 -0.9368 0.9368 0.3499 -124.3714 838.1611)" style="fill-rule:evenodd;clip-rule:evenodd;fill:#231F20;" width="4.124" height="0.298"/>
					</g>
					<g>
						
							<rect x="539.92" y="509.732" transform="matrix(0.3496 -0.9369 0.9369 0.3496 -124.7046 840.1289)" style="fill-rule:evenodd;clip-rule:evenodd;fill:#231F20;" width="5.628" height="0.298"/>
					</g>
					<g>
						
							<rect x="542.245" y="509.517" transform="matrix(0.3502 -0.9367 0.9367 0.3502 -123.6882 841.0438)" style="fill-rule:evenodd;clip-rule:evenodd;fill:#231F20;" width="4.124" height="0.298"/>
					</g>
					<g>
						
							<rect x="543.556" y="510.006" transform="matrix(0.3499 -0.9368 0.9368 0.3499 -123.1902 842.8002)" style="fill-rule:evenodd;clip-rule:evenodd;fill:#231F20;" width="4.124" height="0.298"/>
					</g>
					<g>
						
							<rect x="544.867" y="510.496" transform="matrix(0.3495 -0.9369 0.9369 0.3495 -122.6524 844.6359)" style="fill-rule:evenodd;clip-rule:evenodd;fill:#231F20;" width="4.124" height="0.298"/>
					</g>
					<g>
						
							<rect x="546.178" y="510.985" transform="matrix(0.3496 -0.9369 0.9369 0.3496 -122.2975 846.1041)" style="fill-rule:evenodd;clip-rule:evenodd;fill:#231F20;" width="4.124" height="0.298"/>
					</g>
					<g>
						
							<rect x="545.51" y="512.849" transform="matrix(0.3499 -0.9368 0.9368 0.3499 -123.6297 847.8521)" style="fill-rule:evenodd;clip-rule:evenodd;fill:#231F20;" width="7.057" height="0.298"/>
					</g>
					<g>
						
							<rect x="548.648" y="511.907" transform="matrix(0.3499 -0.9368 0.9368 0.3499 -121.6614 848.8055)" style="fill-rule:evenodd;clip-rule:evenodd;fill:#231F20;" width="4.124" height="0.298"/>
					</g>
					<g>
						
							<rect x="549.959" y="512.397" transform="matrix(0.3499 -0.9368 0.9368 0.3499 -121.2677 850.352)" style="fill-rule:evenodd;clip-rule:evenodd;fill:#231F20;" width="4.124" height="0.298"/>
					</g>
					<g>
						
							<rect x="551.269" y="512.887" transform="matrix(0.3496 -0.9369 0.9369 0.3496 -120.7674 852.1104)" style="fill-rule:evenodd;clip-rule:evenodd;fill:#231F20;" width="4.124" height="0.298"/>
					</g>
					<g>
						
							<rect x="552.581" y="513.376" transform="matrix(0.3496 -0.9369 0.9369 0.3496 -120.3733 853.6571)" style="fill-rule:evenodd;clip-rule:evenodd;fill:#231F20;" width="4.124" height="0.298"/>
					</g>
					<g>
						
							<rect x="552.877" y="514.57" transform="matrix(0.3498 -0.9368 0.9368 0.3498 -120.8774 855.2821)" style="fill-rule:evenodd;clip-rule:evenodd;fill:#231F20;" width="5.628" height="0.298"/>
					</g>
					<g>
						
							<rect x="555.202" y="514.355" transform="matrix(0.35 -0.9368 0.9368 0.35 -119.7331 856.458)" style="fill-rule:evenodd;clip-rule:evenodd;fill:#231F20;" width="4.124" height="0.298"/>
					</g>
					<g>
						
							<rect x="556.513" y="514.845" transform="matrix(0.3502 -0.9367 0.9367 0.3502 -119.4071 857.8708)" style="fill-rule:evenodd;clip-rule:evenodd;fill:#231F20;" width="4.124" height="0.298"/>
					</g>
					<g>
						
							<rect x="557.824" y="515.334" transform="matrix(0.3498 -0.9368 0.9368 0.3498 -118.8651 859.71)" style="fill-rule:evenodd;clip-rule:evenodd;fill:#231F20;" width="4.124" height="0.298"/>
					</g>
					<g>
						
							<rect x="559.135" y="515.824" transform="matrix(0.3495 -0.9369 0.9369 0.3495 -118.3627 861.4703)" style="fill-rule:evenodd;clip-rule:evenodd;fill:#231F20;" width="4.124" height="0.298"/>
					</g>
					<g>
						
							<rect x="558.467" y="517.687" transform="matrix(0.3496 -0.9369 0.9369 0.3496 -119.63 863.3502)" style="fill-rule:evenodd;clip-rule:evenodd;fill:#231F20;" width="7.057" height="0.298"/>
					</g>
					<g>
						
							<rect x="561.605" y="516.746" transform="matrix(0.3499 -0.9368 0.9368 0.3499 -117.7703 864.0893)" style="fill-rule:evenodd;clip-rule:evenodd;fill:#231F20;" width="4.124" height="0.298"/>
					</g>
					<g>
						
							<rect x="562.916" y="517.235" transform="matrix(0.3499 -0.9368 0.9368 0.3499 -117.3766 865.6357)" style="fill-rule:evenodd;clip-rule:evenodd;fill:#231F20;" width="4.124" height="0.298"/>
					</g>
					<g>
						
							<rect x="564.227" y="517.725" transform="matrix(0.3496 -0.9369 0.9369 0.3496 -116.873 867.397)" style="fill-rule:evenodd;clip-rule:evenodd;fill:#231F20;" width="4.124" height="0.298"/>
					</g>
					<g>
						
							<rect x="565.538" y="518.215" transform="matrix(0.3497 -0.9369 0.9369 0.3497 -116.5201 868.8633)" style="fill-rule:evenodd;clip-rule:evenodd;fill:#231F20;" width="4.124" height="0.298"/>
					</g>
					<g>
						
							<rect x="565.834" y="519.408" transform="matrix(0.3495 -0.9369 0.9369 0.3495 -116.8747 870.7825)" style="fill-rule:evenodd;clip-rule:evenodd;fill:#231F20;" width="5.628" height="0.298"/>
					</g>
					<g>
						
							<rect x="568.159" y="519.194" transform="matrix(0.3499 -0.9368 0.9368 0.3499 -115.8019 871.8213)" style="fill-rule:evenodd;clip-rule:evenodd;fill:#231F20;" width="4.124" height="0.298"/>
					</g>
					<g>
						
							<rect x="569.471" y="519.683" transform="matrix(0.3498 -0.9368 0.9368 0.3498 -115.3666 873.4484)" style="fill-rule:evenodd;clip-rule:evenodd;fill:#231F20;" width="4.124" height="0.298"/>
					</g>
					<g>
						
							<rect x="570.781" y="520.173" transform="matrix(0.35 -0.9368 0.9368 0.35 -115.0561 874.8332)" style="fill-rule:evenodd;clip-rule:evenodd;fill:#231F20;" width="4.124" height="0.298"/>
					</g>
					<g>
						
							<rect x="572.092" y="520.662" transform="matrix(0.3495 -0.9369 0.9369 0.3495 -114.4671 876.758)" style="fill-rule:evenodd;clip-rule:evenodd;fill:#231F20;" width="4.124" height="0.298"/>
					</g>
					<g>
						
							<rect x="571.424" y="522.526" transform="matrix(0.3496 -0.9369 0.9369 0.3496 -115.7357 878.6368)" style="fill-rule:evenodd;clip-rule:evenodd;fill:#231F20;" width="7.057" height="0.298"/>
					</g>
					<g>
						
							<rect x="574.562" y="521.584" transform="matrix(0.35 -0.9368 0.9368 0.35 -113.9213 879.2919)" style="fill-rule:evenodd;clip-rule:evenodd;fill:#231F20;" width="4.124" height="0.298"/>
					</g>
					<g>
						
							<rect x="575.873" y="522.074" transform="matrix(0.3499 -0.9368 0.9368 0.3499 -113.4855 880.9194)" style="fill-rule:evenodd;clip-rule:evenodd;fill:#231F20;" width="4.124" height="0.298"/>
					</g>
					<g>
						
							<rect x="577.184" y="522.563" transform="matrix(0.3496 -0.9369 0.9369 0.3496 -112.9787 882.6836)" style="fill-rule:evenodd;clip-rule:evenodd;fill:#231F20;" width="4.124" height="0.298"/>
					</g>
					<g>
						
							<rect x="578.495" y="523.053" transform="matrix(0.3496 -0.9369 0.9369 0.3496 -112.5846 884.2303)" style="fill-rule:evenodd;clip-rule:evenodd;fill:#231F20;" width="4.124" height="0.298"/>
					</g>
					<g>
						
							<rect x="578.791" y="524.247" transform="matrix(0.3495 -0.9369 0.9369 0.3495 -112.9791 886.0702)" style="fill-rule:evenodd;clip-rule:evenodd;fill:#231F20;" width="5.628" height="0.298"/>
					</g>
					<g>
						
							<rect x="581.117" y="524.032" transform="matrix(0.3499 -0.9368 0.9368 0.3499 -111.9108 887.105)" style="fill-rule:evenodd;clip-rule:evenodd;fill:#231F20;" width="4.124" height="0.298"/>
					</g>
					<g>
						
							<rect x="582.427" y="524.522" transform="matrix(0.3498 -0.9368 0.9368 0.3498 -111.4743 888.7332)" style="fill-rule:evenodd;clip-rule:evenodd;fill:#231F20;" width="4.124" height="0.298"/>
					</g>
					<g>
						
							<rect x="583.738" y="525.011" transform="matrix(0.3499 -0.9368 0.9368 0.3499 -111.1234 890.1978)" style="fill-rule:evenodd;clip-rule:evenodd;fill:#231F20;" width="4.124" height="0.298"/>
					</g>
					<g>
						
							<rect x="585.049" y="525.501" transform="matrix(0.3498 -0.9368 0.9368 0.3498 -110.6867 891.8262)" style="fill-rule:evenodd;clip-rule:evenodd;fill:#231F20;" width="4.124" height="0.298"/>
					</g>
					<g>
						
							<rect x="584.381" y="527.364" transform="matrix(0.3497 -0.9369 0.9369 0.3497 -111.8843 893.8412)" style="fill-rule:evenodd;clip-rule:evenodd;fill:#231F20;" width="7.057" height="0.298"/>
					</g>
					<g>
						<path style="fill:#231F20;" d="M391.841,461.906c-0.08,0.214-0.224,0.368-0.431,0.461c-0.207,0.093-0.416,0.1-0.628,0.021
							c-0.215-0.08-0.369-0.223-0.463-0.43c-0.094-0.206-0.102-0.416-0.022-0.629l0.658-1.763c0.08-0.214,0.224-0.368,0.431-0.462
							c0.207-0.094,0.417-0.101,0.63-0.021c0.215,0.08,0.369,0.224,0.461,0.43c0.093,0.207,0.1,0.417,0.02,0.629L391.841,461.906z
							 M391.998,459.945c0.029-0.077,0.026-0.154-0.008-0.229c-0.034-0.076-0.09-0.128-0.168-0.157
							c-0.077-0.028-0.153-0.026-0.228,0.009c-0.075,0.035-0.126,0.091-0.155,0.168l-0.659,1.765
							c-0.029,0.077-0.027,0.154,0.007,0.229c0.034,0.075,0.089,0.127,0.167,0.156c0.077,0.029,0.153,0.026,0.229-0.008
							c0.075-0.034,0.128-0.09,0.156-0.167L391.998,459.945z"/>
					</g>
					<g>
						<path style="fill:#231F20;" d="M403.856,467.228l0.928-2.486l-0.415-0.155l0.127-0.34c0.122,0.03,0.25,0.027,0.383-0.008
							c0.133-0.035,0.243-0.097,0.33-0.187l0.34,0.127l-1.206,3.231L403.856,467.228z"/>
					</g>
					<g>
						<path style="fill:#231F20;" d="M416.929,469.468c0.114-0.306,0.284-0.509,0.509-0.609c0.195-0.089,0.409-0.091,0.641-0.004
							c0.213,0.079,0.365,0.227,0.456,0.443c0.091,0.216,0.096,0.43,0.017,0.643c-0.082,0.22-0.21,0.414-0.385,0.582
							c-0.095,0.093-0.293,0.242-0.592,0.446c-0.082,0.056-0.205,0.144-0.369,0.264l-0.137,0.098
							c-0.089,0.065-0.157,0.117-0.205,0.156c-0.023,0.02-0.036,0.033-0.038,0.039l0.956,0.357l-0.178,0.477l-1.549-0.578
							l0.167-0.447c0.004-0.01,0.061-0.056,0.173-0.138c0.051-0.038,0.109-0.079,0.173-0.123l0.195-0.135
							c0.112-0.074,0.289-0.193,0.53-0.357c0.228-0.154,0.411-0.301,0.548-0.444c0.112-0.117,0.191-0.235,0.236-0.355
							c0.037-0.098,0.04-0.192,0.011-0.281c-0.033-0.095-0.097-0.16-0.192-0.195c-0.136-0.051-0.261-0.009-0.376,0.127
							c-0.038,0.044-0.07,0.103-0.097,0.175l-0.046,0.124l-0.48-0.179L416.929,469.468z"/>
					</g>
					<g>
						<path style="fill:#231F20;" d="M429.948,476.443c0.223,0.084,0.374,0.021,0.451-0.186l0.071-0.191
							c0.124-0.331,0.012-0.561-0.335-0.691l0.156-0.417c0.187,0.07,0.345,0.069,0.473-0.002c0.118-0.064,0.208-0.18,0.272-0.351
							l0.028-0.075c0.079-0.211,0.025-0.351-0.16-0.42c-0.103-0.039-0.193-0.027-0.271,0.033c-0.058,0.046-0.105,0.117-0.141,0.213
							l-0.032,0.085l-0.477-0.178l0.028-0.074c0.086-0.23,0.214-0.396,0.385-0.496c0.194-0.115,0.411-0.128,0.652-0.038
							c0.228,0.085,0.383,0.231,0.462,0.437c0.072,0.185,0.069,0.382-0.009,0.59l-0.051,0.137c-0.075,0.201-0.2,0.352-0.375,0.453
							c-0.075,0.043-0.155,0.073-0.239,0.09c0.114,0.134,0.18,0.299,0.198,0.493c0.01,0.1-0.008,0.21-0.053,0.33l-0.095,0.255
							c-0.089,0.238-0.244,0.404-0.464,0.496c-0.211,0.09-0.427,0.093-0.647,0.011c-0.215-0.08-0.368-0.223-0.461-0.431
							c-0.093-0.207-0.1-0.416-0.021-0.627l0.03-0.08l0.477,0.137l-0.032,0.117c-0.023,0.083-0.019,0.16,0.012,0.231
							C429.811,476.362,429.867,476.413,429.948,476.443z"/>
					</g>
					<g>
						<path style="fill:#231F20;" d="M442.378,480.259l1.625-1.724l0.487,0.182l-0.764,2.046l0.312,0.116l-0.183,0.489l-0.312-0.116
							l-0.26,0.696l-0.487-0.182l0.26-0.696l-0.861-0.322L442.378,480.259z M443.238,480.581l0.377-1.009l-0.779,0.859
							L443.238,480.581z"/>
					</g>
					<g>
						<path style="fill:#231F20;" d="M456.529,483.771l-0.259,0.693c0.074-0.05,0.162-0.079,0.264-0.083
							c0.053-0.001,0.111,0.009,0.173,0.033c0.213,0.079,0.343,0.213,0.389,0.401c0.04,0.161,0.016,0.36-0.072,0.595l-0.26,0.696
							c-0.089,0.239-0.238,0.406-0.446,0.503c-0.199,0.094-0.409,0.1-0.629,0.018c-0.213-0.08-0.361-0.224-0.444-0.431
							c-0.081-0.198-0.081-0.404-0.002-0.617l0.029-0.077l0.48,0.138l-0.031,0.114c-0.036,0.133-0.016,0.239,0.061,0.316
							c0.022,0.024,0.049,0.041,0.08,0.053c0.199,0.075,0.338,0.008,0.415-0.2l0.295-0.791c0.035-0.095,0.03-0.186-0.016-0.273
							c-0.022-0.042-0.062-0.073-0.121-0.095c-0.086-0.032-0.163-0.022-0.229,0.029c-0.056,0.046-0.097,0.101-0.121,0.166
							l-0.033,0.088l-0.487-0.182l0.659-1.765l1.425,0.532l-0.183,0.489L456.529,483.771z"/>
					</g>
					<g>
						<path style="fill:#231F20;" d="M469.812,489.089l0.03-0.08c0.03-0.079,0.033-0.153,0.012-0.223
							c-0.022-0.07-0.072-0.119-0.149-0.148c-0.077-0.029-0.147-0.024-0.209,0.015c-0.062,0.038-0.108,0.097-0.138,0.176
							l-0.241,0.644c0.149-0.058,0.29-0.062,0.424-0.011c0.215,0.08,0.348,0.215,0.398,0.404c0.046,0.166,0.025,0.365-0.061,0.596
							l-0.207,0.554l-0.002-0.001c-0.088,0.202-0.227,0.348-0.417,0.435c-0.19,0.087-0.386,0.094-0.587,0.019
							c-0.215-0.08-0.363-0.223-0.445-0.428c-0.08-0.198-0.081-0.404-0.001-0.617l0.658-1.763c0.059-0.158,0.15-0.286,0.274-0.385
							c0.124-0.098,0.268-0.152,0.432-0.161c0.105-0.008,0.21,0.008,0.317,0.048c0.213,0.079,0.361,0.222,0.444,0.43
							c0.08,0.198,0.081,0.404,0.001,0.616l-0.026,0.07L469.812,489.089z M468.698,490.593c-0.029,0.079-0.034,0.152-0.014,0.218
							c0.022,0.073,0.072,0.123,0.15,0.152c0.078,0.029,0.148,0.024,0.213-0.017c0.061-0.036,0.106-0.094,0.135-0.173l0.223-0.598
							c0.035-0.093,0.029-0.182-0.017-0.27c-0.022-0.042-0.062-0.073-0.121-0.095c-0.085-0.032-0.161-0.022-0.229,0.029
							c-0.055,0.043-0.095,0.097-0.12,0.164L468.698,490.593z"/>
					</g>
					<g>
						<path style="fill:#231F20;" d="M483.574,493.313l-0.183,0.49l-1.706,2.486l-0.478-0.178l1.707-2.486l-0.986-0.368l0.183-0.49
							L483.574,493.313z"/>
					</g>
					<g>
						<path style="fill:#231F20;" d="M495.658,500.67c-0.08,0.214-0.224,0.369-0.431,0.462c-0.207,0.093-0.417,0.1-0.63,0.02
							l-0.039-0.015c-0.215-0.081-0.368-0.224-0.462-0.431c-0.093-0.207-0.1-0.416-0.021-0.627l0.11-0.293
							c0.074-0.198,0.204-0.346,0.392-0.444c0.08-0.043,0.166-0.07,0.257-0.083c-0.105-0.116-0.165-0.265-0.179-0.448
							c-0.006-0.094,0.014-0.203,0.059-0.324l0.066-0.175c0.078-0.21,0.205-0.36,0.38-0.451c0.195-0.103,0.406-0.113,0.633-0.028
							l0.039,0.014c0.228,0.086,0.383,0.23,0.462,0.437c0.072,0.185,0.069,0.382-0.009,0.59l-0.066,0.175
							c-0.075,0.201-0.197,0.345-0.367,0.432c-0.075,0.038-0.152,0.063-0.23,0.073c0.114,0.134,0.18,0.298,0.197,0.493
							c0.01,0.099-0.008,0.209-0.053,0.329L495.658,500.67z M495.257,500.258c0.072-0.192,0.076-0.337,0.013-0.435
							c-0.03-0.047-0.082-0.084-0.156-0.111c-0.129-0.048-0.237-0.026-0.324,0.067c-0.053,0.057-0.1,0.141-0.141,0.253l-0.058,0.155
							c-0.04,0.106-0.039,0.204,0.002,0.294c0.034,0.076,0.092,0.131,0.174,0.165c0.135,0.043,0.251,0.011,0.349-0.093
							c0.034-0.034,0.062-0.08,0.084-0.139L495.257,500.258z M495.803,498.844c0.079-0.223,0.061-0.387-0.053-0.495
							c-0.026-0.025-0.06-0.046-0.103-0.062c-0.084-0.032-0.161-0.034-0.232-0.008c-0.057,0.022-0.106,0.059-0.146,0.111
							c-0.04,0.053-0.075,0.124-0.105,0.214c-0.047,0.142-0.063,0.252-0.046,0.328c0.021,0.101,0.09,0.174,0.207,0.217
							c0.117,0.044,0.218,0.033,0.304-0.035C495.7,499.057,495.758,498.967,495.803,498.844z"/>
					</g>
					<g>
						<path style="fill:#231F20;" d="M508.77,502.677c0.213,0.079,0.361,0.222,0.444,0.43c0.08,0.198,0.081,0.404,0.001,0.617
							l-0.658,1.762c-0.08,0.215-0.218,0.371-0.413,0.468c-0.196,0.097-0.399,0.107-0.608,0.028
							c-0.215-0.08-0.363-0.222-0.445-0.428c-0.08-0.198-0.081-0.403-0.002-0.617l0.026-0.069l0.505,0.188l-0.03,0.08
							c-0.029,0.079-0.033,0.153-0.011,0.222c0.022,0.069,0.072,0.118,0.149,0.147c0.077,0.029,0.147,0.025,0.209-0.013
							s0.108-0.096,0.137-0.174l0.241-0.647c-0.151,0.059-0.293,0.064-0.425,0.015c-0.213-0.08-0.345-0.214-0.396-0.403
							c-0.046-0.166-0.025-0.366,0.062-0.599l0.207-0.554l0.003,0.001c0.062-0.147,0.155-0.266,0.278-0.356
							c0.123-0.09,0.262-0.139,0.418-0.147C508.565,502.622,508.667,502.639,508.77,502.677z M508.735,503.551
							c0.03-0.079,0.033-0.153,0.011-0.223c-0.022-0.07-0.072-0.119-0.149-0.148c-0.078-0.029-0.147-0.024-0.21,0.015
							c-0.062,0.038-0.108,0.097-0.138,0.176l-0.223,0.598c-0.036,0.095-0.03,0.186,0.015,0.273c0.02,0.041,0.06,0.072,0.12,0.095
							c0.124,0.046,0.225,0.01,0.305-0.109c0.023-0.037,0.039-0.065,0.047-0.086L508.735,503.551z"/>
					</g>
					<g>
						<path style="fill:#231F20;" d="M519.485,510.407l0.929-2.486l-0.415-0.155l0.127-0.34c0.122,0.03,0.25,0.027,0.383-0.008
							c0.133-0.035,0.243-0.098,0.329-0.186l0.34,0.127l-1.207,3.231L519.485,510.407z"/>
						<path style="fill:#231F20;" d="M522.218,510.588c-0.08,0.215-0.224,0.369-0.431,0.462c-0.207,0.093-0.416,0.1-0.628,0.02
							c-0.214-0.08-0.369-0.223-0.463-0.429c-0.094-0.206-0.102-0.416-0.022-0.63l0.658-1.763c0.08-0.214,0.224-0.368,0.431-0.462
							c0.208-0.094,0.417-0.101,0.63-0.021c0.215,0.08,0.369,0.224,0.461,0.431c0.093,0.207,0.1,0.417,0.021,0.629L522.218,510.588z
							 M522.375,508.626c0.029-0.077,0.026-0.153-0.008-0.229c-0.034-0.076-0.09-0.128-0.168-0.157
							c-0.077-0.029-0.153-0.026-0.228,0.009c-0.075,0.035-0.127,0.092-0.155,0.169l-0.659,1.765
							c-0.029,0.077-0.027,0.154,0.007,0.228c0.033,0.075,0.089,0.127,0.166,0.156c0.077,0.029,0.153,0.026,0.229-0.008
							c0.075-0.034,0.128-0.091,0.156-0.168L522.375,508.626z"/>
					</g>
					<g>
						<path style="fill:#231F20;" d="M532.776,515.37l0.928-2.486l-0.415-0.155l0.127-0.341c0.122,0.03,0.25,0.027,0.383-0.008
							c0.133-0.035,0.243-0.098,0.329-0.186l0.34,0.127l-1.206,3.231L532.776,515.37z"/>
						<path style="fill:#231F20;" d="M534.076,515.856l0.928-2.487l-0.415-0.155l0.127-0.34c0.122,0.03,0.25,0.027,0.383-0.008
							c0.134-0.035,0.243-0.097,0.33-0.186l0.34,0.127l-1.206,3.231L534.076,515.856z"/>
					</g>
					<g>
						<path style="fill:#231F20;" d="M545.389,520.08l0.929-2.486l-0.415-0.155l0.127-0.34c0.122,0.03,0.25,0.027,0.383-0.008
							c0.134-0.035,0.243-0.097,0.33-0.187l0.34,0.127l-1.206,3.231L545.389,520.08z"/>
						<path style="fill:#231F20;" d="M547.149,518.095c0.114-0.306,0.284-0.509,0.509-0.609c0.196-0.089,0.41-0.09,0.642-0.004
							c0.213,0.079,0.365,0.227,0.455,0.443c0.091,0.216,0.096,0.43,0.017,0.643c-0.082,0.22-0.21,0.414-0.385,0.582
							c-0.096,0.093-0.293,0.242-0.592,0.445c-0.081,0.056-0.204,0.144-0.369,0.265l-0.137,0.099
							c-0.089,0.065-0.157,0.117-0.205,0.156c-0.023,0.02-0.036,0.033-0.038,0.038l0.956,0.357l-0.178,0.477l-1.548-0.578
							l0.167-0.447c0.004-0.01,0.061-0.056,0.173-0.138c0.051-0.038,0.109-0.079,0.173-0.123l0.195-0.135
							c0.112-0.074,0.288-0.193,0.53-0.357c0.228-0.154,0.41-0.302,0.548-0.444c0.112-0.116,0.191-0.235,0.236-0.355
							c0.037-0.098,0.04-0.191,0.011-0.28c-0.033-0.095-0.097-0.16-0.192-0.195c-0.136-0.051-0.261-0.009-0.376,0.127
							c-0.038,0.044-0.07,0.103-0.097,0.174l-0.046,0.124l-0.479-0.179L547.149,518.095z"/>
					</g>
					<g>
						<path style="fill:#231F20;" d="M558.359,524.923l0.928-2.486l-0.415-0.155l0.127-0.34c0.122,0.03,0.249,0.027,0.383-0.008
							c0.134-0.035,0.243-0.097,0.33-0.186l0.34,0.127l-1.207,3.231L558.359,524.923z"/>
						<path style="fill:#231F20;" d="M560.163,525.068c0.223,0.083,0.374,0.021,0.451-0.186l0.071-0.19
							c0.124-0.331,0.012-0.562-0.335-0.691l0.155-0.417c0.187,0.07,0.345,0.069,0.473-0.002c0.118-0.063,0.209-0.18,0.272-0.35
							l0.028-0.075c0.079-0.211,0.025-0.351-0.16-0.42c-0.103-0.039-0.194-0.027-0.271,0.033c-0.059,0.046-0.106,0.117-0.141,0.213
							l-0.032,0.085l-0.476-0.178l0.028-0.074c0.085-0.23,0.214-0.396,0.385-0.496c0.194-0.115,0.411-0.128,0.651-0.038
							c0.229,0.085,0.383,0.231,0.462,0.437c0.071,0.185,0.068,0.382-0.009,0.59l-0.051,0.137c-0.075,0.201-0.2,0.352-0.375,0.453
							c-0.075,0.043-0.155,0.073-0.24,0.09c0.114,0.134,0.18,0.299,0.198,0.493c0.01,0.1-0.008,0.21-0.053,0.33l-0.095,0.255
							c-0.089,0.239-0.244,0.404-0.465,0.496c-0.211,0.09-0.427,0.093-0.646,0.011c-0.215-0.08-0.369-0.223-0.462-0.43
							c-0.093-0.207-0.1-0.416-0.021-0.627l0.029-0.08l0.478,0.137l-0.032,0.117c-0.023,0.083-0.019,0.16,0.013,0.231
							C560.026,524.987,560.082,525.038,560.163,525.068z"/>
					</g>
					<g>
						<path style="fill:#231F20;" d="M571.274,529.746l0.928-2.487l-0.414-0.155l0.127-0.34c0.121,0.03,0.249,0.027,0.383-0.008
							c0.134-0.035,0.243-0.097,0.329-0.186l0.34,0.127l-1.207,3.231L571.274,529.746z"/>
						<path style="fill:#231F20;" d="M572.594,528.885l1.624-1.724l0.487,0.182l-0.764,2.046l0.312,0.117l-0.182,0.489l-0.312-0.116
							l-0.26,0.696l-0.487-0.182l0.26-0.696l-0.86-0.321L572.594,528.885z M573.454,529.207l0.377-1.009l-0.779,0.859
							L573.454,529.207z"/>
					</g>
					<g>
						<path style="fill:#231F20;" d="M584.296,534.609l0.928-2.486l-0.414-0.155l0.127-0.341c0.122,0.03,0.249,0.027,0.383-0.008
							c0.134-0.035,0.243-0.097,0.329-0.186l0.34,0.127l-1.206,3.231L584.296,534.609z"/>
						<path style="fill:#231F20;" d="M586.756,532.401l-0.259,0.693c0.074-0.05,0.162-0.079,0.264-0.083
							c0.053-0.001,0.111,0.009,0.173,0.033c0.214,0.079,0.344,0.213,0.389,0.401c0.039,0.161,0.015,0.36-0.073,0.595l-0.26,0.696
							c-0.089,0.239-0.237,0.406-0.446,0.503c-0.2,0.094-0.41,0.1-0.629,0.018c-0.214-0.08-0.361-0.224-0.444-0.43
							c-0.08-0.198-0.081-0.404-0.002-0.617l0.029-0.077l0.479,0.139l-0.031,0.114c-0.036,0.133-0.015,0.239,0.061,0.317
							c0.023,0.024,0.049,0.041,0.08,0.053c0.199,0.075,0.337,0.008,0.415-0.2l0.295-0.791c0.035-0.095,0.03-0.186-0.016-0.273
							c-0.022-0.042-0.062-0.073-0.12-0.095c-0.087-0.032-0.163-0.023-0.229,0.029c-0.057,0.046-0.097,0.101-0.122,0.166
							l-0.032,0.088l-0.487-0.182l0.659-1.765l1.425,0.532l-0.182,0.49L586.756,532.401z"/>
					</g>
				</g>
			</g>
			<g>
				<path style="fill-rule:evenodd;clip-rule:evenodd;fill:#3D3938;" d="M712.222,134.578l-10.418-0.572
					c-8.521-0.455-12.6,4.782-14.611,11.031c-4.897,15.307,2.263,33.641-24.72,40.663c29.135,6.651,62.215-24.659,54.947-42.074
					L712.222,134.578z"/>
				<path style="fill-rule:evenodd;clip-rule:evenodd;fill:#EED895;" d="M717.419,143.625l-15.616-9.62l1.672-2.714
					c0.909-1.476,2.909-1.951,4.385-1.042l10.188,6.276c1.523,0.939,1.951,2.91,1.042,4.386L717.419,143.625z"/>
				<path style="fill-rule:evenodd;clip-rule:evenodd;fill:#3D8B3F;" d="M718.144,136.585c0,0,4.359-8.676,41.553-56.367
					c24.595-31.611,40.331-76.56,45.907-91.581c0.396-1.069-4.222-3.914-4.999-3.079c-10.907,11.736-44.021,45.981-61.142,82.196
					c-25.862,54.671-31.65,62.467-31.65,62.467L718.144,136.585z"/>
				<path style="fill-rule:evenodd;clip-rule:evenodd;fill:#48A34A;" d="M803.521-13.632l-90.566,147.02l5.19,3.197
					c0,0,4.359-8.676,41.553-56.367c24.595-31.611,40.331-76.56,45.907-91.581C805.802-11.898,804.758-12.869,803.521-13.632
					L803.521-13.632z"/>
				<path style="fill-rule:evenodd;clip-rule:evenodd;fill:#F5E326;" d="M685.831,150.766c-2.292,13.956,0.258,28.794-23.359,34.934
					c14.568,3.326,30.129-2.851,41.159-12.016c-0.249-0.022-0.517-0.121-0.736-0.191c-2.289-1.082,4.636-5.288,3.777-8.904
					c-0.878-3.693-8.351,5.561-9.999,3.758c-1.648-1.803,5.413-13.479,1.505-14.704c-3.831-1.244-6.423,10.426-9.262,10.451
					C686.107,164.071,686.992,150.693,685.831,150.766L685.831,150.766z"/>
				<path style="fill-rule:evenodd;clip-rule:evenodd;fill:#48A34A;" d="M746.508,68.152L746.508,68.152
					c-1.666-1.027-2.197-3.258-1.17-4.924l13.872-22.52c1.026-1.666,3.258-2.196,4.924-1.17l0,0c1.666,1.027,2.196,3.258,1.17,4.924
					l-13.872,22.52C750.405,68.648,748.174,69.178,746.508,68.152L746.508,68.152z"/>
			</g>
			<g>
				<polygon style="fill-rule:evenodd;clip-rule:evenodd;fill:#FBD394;" points="641.937,391.47 650.103,410.821 658.268,430.172 
					665.133,437.627 686.027,418.388 679.162,410.933 660.55,401.202 				"/>
				<polygon style="fill-rule:evenodd;clip-rule:evenodd;fill:#231F20;" points="641.937,391.47 646.527,402.347 652.399,396.94 
									"/>
				<path style="fill-rule:evenodd;clip-rule:evenodd;fill:#2392C2;" d="M672.024,417.177l134.84,146.44l6.974-6.422
					L679.162,410.933c0.326,1.72-0.278,3.639-1.75,4.994C675.863,417.354,673.768,417.771,672.024,417.177z"/>
				<path style="fill-rule:evenodd;clip-rule:evenodd;fill:#58B9E2;" d="M665.119,423.615l0.021,0.082l134.75,146.342l6.974-6.422
					l-134.84-146.44l-0.004-0.002c0.383,1.753-0.214,3.735-1.723,5.124C668.809,423.669,666.818,424.108,665.119,423.615z"/>
				<path style="fill-rule:evenodd;clip-rule:evenodd;fill:#29ABE2;" d="M658.308,430.215l134.637,146.219l6.974-6.422
					l-134.8-146.397c0.449,1.787-0.139,3.84-1.689,5.268C661.958,430.238,659.995,430.682,658.308,430.215z"/>
			</g>
			<g>
				<polygon style="fill-rule:evenodd;clip-rule:evenodd;fill:#FBD394;" points="683.677,371 689.111,391.288 694.545,411.575 
					700.322,419.902 723.658,403.711 717.88,395.385 700.779,383.192 				"/>
				<polygon style="fill-rule:evenodd;clip-rule:evenodd;fill:#231F20;" points="683.677,371 686.731,382.403 693.289,377.853 				
					"/>
				<path style="fill-rule:evenodd;clip-rule:evenodd;fill:#C8291E;" d="M709.953,400.59l85.507,123.238l7.789-5.404L717.88,395.385
					c0.087,1.748-0.775,3.567-2.418,4.707C713.731,401.293,711.599,401.418,709.953,400.59z"/>
				<path style="fill-rule:evenodd;clip-rule:evenodd;fill:#EC2E16;" d="M702.23,406.02l0.01,0.084l85.431,123.128l7.789-5.404
					L709.953,400.59l-0.004-0.002c0.139,1.789-0.725,3.67-2.41,4.839C705.878,406.58,703.846,406.742,702.23,406.02z"/>
				<path style="fill-rule:evenodd;clip-rule:evenodd;fill:#EC4D39;" d="M694.578,411.624l85.335,122.991l7.789-5.405L702.23,406.02
					c0.199,1.832-0.664,3.785-2.396,4.986C698.191,412.147,696.186,412.318,694.578,411.624z"/>
			</g>
			<g>
				<polygon style="fill-rule:evenodd;clip-rule:evenodd;fill:#FBD394;" points="614.815,451.233 635.281,455.956 655.745,460.679 
					664.269,466.162 648.902,490.048 640.379,484.565 627.597,467.899 				"/>
				<polygon style="fill-rule:evenodd;clip-rule:evenodd;fill:#231F20;" points="614.815,451.233 626.318,453.888 622,460.601 				
					"/>
				<path style="fill-rule:evenodd;clip-rule:evenodd;fill:#48A34A;" d="M645.305,476.461l115.186,74.102l-5.129,7.973
					l-114.982-73.971c1.75,0.026,3.537-0.899,4.62-2.581C646.139,480.212,646.19,478.077,645.305,476.461z"/>
				<path style="fill-rule:evenodd;clip-rule:evenodd;fill:#429237;" d="M650.462,468.553l0.084,0.007l115.074,74.03l-5.13,7.973
					l-115.186-74.102l-0.002-0.004c1.792,0.076,3.642-0.852,4.752-2.577C651.149,472.179,651.24,470.142,650.462,468.553z"/>
				<path style="fill-rule:evenodd;clip-rule:evenodd;fill:#3D8B3F;" d="M655.795,460.71l114.933,73.939l-5.129,7.973
					l-115.136-74.07c1.838,0.135,3.759-0.796,4.899-2.568C656.444,464.302,656.545,462.292,655.795,460.71z"/>
			</g>
			<g>
				<path style="fill-rule:evenodd;clip-rule:evenodd;fill:#F5E326;" d="M105.263,62.297l-0.894,3.691
					c-0.307,1.267-1.607,2.061-2.874,1.754l-10.633-2.575c-1.267-0.307-2.061-1.607-1.754-2.874l0.894-3.691
					c0.307-1.267,1.607-2.06,2.874-1.754l10.633,2.575C104.777,59.73,105.57,61.03,105.263,62.297L105.263,62.297z"/>
				<path style="fill-rule:evenodd;clip-rule:evenodd;fill:#3D3938;" d="M-95.172,15.688L-95.172,15.688
					c-0.213,0.881-1.103,1.424-2.04,1.197l-4.077-0.987c-0.881-0.213-1.424-1.103-1.211-1.985l0,0
					c0.214-0.882,1.103-1.424,1.985-1.211l4.077,0.987C-95.501,13.916-94.959,14.806-95.172,15.688L-95.172,15.688z"/>
				<path style="fill-rule:evenodd;clip-rule:evenodd;fill:#FF6400;" d="M95.064,68.285c-3.444,4.59-9.202,6.929-14.877,5.555
					c-7.823-1.895-12.503-10.027-10.516-18.236c1.975-8.154,9.87-13.3,17.693-11.405c5.675,1.374,9.724,6.088,10.688,11.745
					L95.064,68.285z"/>
				
					<rect x="-9.239" y="-39.826" transform="matrix(0.2353 -0.9719 0.9719 0.2353 -34.4639 36.5714)" style="fill-rule:evenodd;clip-rule:evenodd;fill:#EC2E16;" width="30.498" height="160.028"/>
				<polygon style="fill-rule:evenodd;clip-rule:evenodd;fill:#E6E6E6;" points="-98.499,17.623 -89.37,24.966 -75.345,36.178 
					-71.757,21.358 -68.168,6.537 -85.781,10.146 -97.245,12.444 				"/>
				<path style="fill-rule:evenodd;clip-rule:evenodd;fill:#3D3938;" d="M87.365,44.199l-7.778,32.12l-0.587,2.424L24.016,65.429
					c0.84-3.471,14.425-3.448,13.424,0.684l38.567,9.339l7.778-32.12L87.365,44.199z"/>
				<polygon style="fill-rule:evenodd;clip-rule:evenodd;fill:#CCCCCC;" points="-71.757,21.358 -68.168,6.537 -85.781,10.146 
					-97.245,12.444 -97.485,13.436 -97.872,15.034 -95.172,15.688 				"/>
				<polygon style="fill-rule:evenodd;clip-rule:evenodd;fill:#DD1F16;" points="-68.168,6.537 -71.757,21.358 69.672,55.604 
					80.196,58.152 83.664,43.827 83.784,43.331 				"/>
				<path style="fill-rule:evenodd;clip-rule:evenodd;fill:#E8450C;" d="M87.365,44.199l-3.589,14.821l5.785,1.401l6.997,1.694
					l1.001-4.132l0.494-2.038C97.09,50.286,93.04,45.573,87.365,44.199L87.365,44.199z"/>
				<path style="fill-rule:evenodd;clip-rule:evenodd;fill:#D9C909;" d="M97.559,57.982l-1.001,4.132l8.264,2.001l0.44-1.818
					c0.307-1.267-0.487-2.568-1.754-2.874L97.559,57.982z"/>
				<polygon style="fill-rule:evenodd;clip-rule:evenodd;fill:#2F2B2A;" points="83.777,59.019 87.365,44.199 83.784,43.331 
					83.664,43.827 80.196,58.152 				"/>
				<path style="fill-rule:evenodd;clip-rule:evenodd;fill:#EC6553;" d="M29.028,53.403L29.028,53.403
					c-0.574,2.369-2.914,3.844-5.283,3.27l-85.232-20.639c-2.369-0.574-3.831-2.969-3.257-5.338l0,0
					c0.56-2.314,2.956-3.775,5.325-3.201l85.232,20.638C28.181,48.707,29.588,51.089,29.028,53.403L29.028,53.403z"/>
			</g>
			<g>
				<polygon style="fill-rule:evenodd;clip-rule:evenodd;fill:#C1272D;" points="662.563,239.171 761.083,322.029 814.741,246.066 
					818.072,241.325 719.564,158.509 716.192,163.262 669.755,229.047 				"/>
				<path style="fill-rule:evenodd;clip-rule:evenodd;fill:#F8E0A2;" d="M694.499,232.086l28.064-38.105
					c1.358-1.845,4.056-2.254,5.901-0.895l15.194,11.19c1.893,1.394,2.303,4.092,0.944,5.936l-28.064,38.106
					c-1.394,1.893-4.092,2.302-5.985,0.908l-15.194-11.19C693.514,236.676,693.104,233.979,694.499,232.086L694.499,232.086z"/>
				<path style="fill-rule:evenodd;clip-rule:evenodd;fill:#683714;" d="M761.083,322.029l-98.52-82.858
					c-3.165,4.694-1.836,10.291,2.81,14.228c11.484,9.613,52.084,43.745,85.181,71.589c3.757,3.165,7.438,6.218,10.96,9.183
					C758.782,331.784,757.9,326.505,761.083,322.029L761.083,322.029z"/>
				<path style="fill-rule:evenodd;clip-rule:evenodd;fill:#BF4200;" d="M761.083,322.029c-3.183,4.476-2.301,9.755,0.431,12.142
					c0.053,0.029,0.118,0.1,0.171,0.13c1.914,1.55,4.583,1.681,7.417-0.733c0.725-0.742,1.538-1.643,2.399-2.691l0,0
					c0,0,0.029-0.053,0.071-0.065c17.878-25.348,46.708-66.71,53.24-75.397c-4.721,5.807-10.651-0.752-9.128-8.546
					c0.325-1.832,1.127-3.711,2.388-5.543l-3.33,4.741L761.083,322.029z"/>
				<path style="fill-rule:evenodd;clip-rule:evenodd;fill:#FBE179;" d="M815.683,246.868l-53.546,75.886
					c-1.232,1.779-1.922,3.893-1.758,6.032c0.147,1.608,0.723,3.317,1.966,4.39c0.053,0.029,0.118,0.1,0.171,0.13
					c1.861,1.521,4.041,0.72,5.732-0.699c0.654-0.677,1.255-1.384,1.857-2.091l0.359-0.459c0,0,0.041-0.012,0.029-0.053
					c6.714-9.453,13.363-18.976,20.024-28.458c6.791-9.653,13.581-19.306,20.372-28.959c3.213-4.529,7.315-10.472,10.569-15.012
					C816.952,257.255,815.623,250.721,815.683,246.868L815.683,246.868z"/>
				<path style="fill-rule:evenodd;clip-rule:evenodd;fill:#FEC568;" d="M815.683,246.868c-1.523,7.793,4.407,14.353,9.128,8.546
					c0.118-0.212,0.059-0.106,0.189-0.277L824.14,254L815.683,246.868z"/>
				<polygon style="fill-rule:evenodd;clip-rule:evenodd;fill:#BF4200;" points="822.171,258.977 821.458,257.574 824.14,254 
					825,255.137 				"/>
				<polygon style="fill-rule:evenodd;clip-rule:evenodd;fill:#BF4200;" points="814.888,247.987 814.264,246.738 818.072,241.325 
					818.631,242.816 				"/>
				<path style="fill-rule:evenodd;clip-rule:evenodd;fill:#BF4200;" d="M823.044,255.472L824.14,254l-8.457-7.132l0.012,0.041
					l-0.041,0.012c-0.177,0.942-0.266,1.414-0.237,2.297L823.044,255.472z"/>
				<path style="fill-rule:evenodd;clip-rule:evenodd;fill:#B5272D;" d="M759.416,205.03c9.824,34.438-4.535,69.932-32.897,87.924
					l34.563,29.075l53.181-75.291l3.778-5.359c0,0,0.041-0.012,0.03-0.053l-67.99-57.136
					C754.067,190.5,757.263,197.482,759.416,205.03L759.416,205.03z"/>
			</g>
			<g>
				<g>
					<polygon style="fill-rule:evenodd;clip-rule:evenodd;fill:#363054;" points="86.654,387.438 97.523,439 102.724,438.964 
						92.095,387.167 					"/>
					<path style="fill-rule:evenodd;clip-rule:evenodd;fill:#494273;" d="M69.035,365.782c0.203-6.597,6.897-6.067,18.014,1.684
						c9.452,9.88,17.607,43.319,5.851,39.616C80.983,403.344,83.965,373.448,69.035,365.782L69.035,365.782z"/>
					<path style="fill-rule:evenodd;clip-rule:evenodd;fill:#58508C;" d="M64.973,375.081c-4.449-3.769-9.984-7.146-16.131-9.927
						c3.244-3.713,7.749-7.299,13.652-8.7c8.545-1.98,16.978,3.073,24.554,11.012C73.849,357.32,67.361,368.987,64.973,375.081
						L64.973,375.081z"/>
				</g>
				<polygon style="fill-rule:evenodd;clip-rule:evenodd;fill:#363054;" points="-26.837,434.207 3.025,477.624 -0.586,481.367 
					-30.784,437.962 				"/>
				<path style="fill-rule:evenodd;clip-rule:evenodd;fill:#494273;" d="M-30.381,406.515c-4.919-4.4-9.149,0.814-11.197,14.212
					c0.642,13.658,19.247,42.615,24.667,31.546C-11.405,441.063-35.119,422.616-30.381,406.515L-30.381,406.515z"/>
				<path style="fill-rule:evenodd;clip-rule:evenodd;fill:#58508C;" d="M-20.844,409.983c0.337-5.821,1.705-12.159,3.927-18.529
					c-4.926-0.209-10.629,0.582-15.713,3.893c-7.325,4.826-9.477,14.418-8.948,25.38C-39.83,404.17-26.906,407.512-20.844,409.983
					L-20.844,409.983z"/>
				<path style="fill-rule:evenodd;clip-rule:evenodd;fill:#363054;" d="M3.679,351.409c7.424-3.104,16.393,0.547,18.928,7.768
					c1.481-0.355-0.197-0.05,1.316-0.33c-3.204-9.981-10.956-15.461-21.155-11.198c-10.236,4.279-10.55,13.22-5.66,22.495
					c1.224-0.864,0.247-0.147,1.578-0.968C-4.711,362.316-3.708,354.496,3.679,351.409L3.679,351.409z"/>
				<path style="fill-rule:evenodd;clip-rule:evenodd;fill:#FFB700;" d="M96.807,434.045c0,0,10.677-8.912,23.418,6.287
					c12.741,15.199,11.002,41.385,8.453,45.402c-2.549,4.017-9.111,6.232-10.182,4.829
					C117.478,489.182,96.807,434.045,96.807,434.045L96.807,434.045z"/>
				<path style="fill-rule:evenodd;clip-rule:evenodd;fill:#F0A016;" d="M98.532,441.648c6.512-2.546,11.607-7.848,20.681,5.009
					c5.517,7.824,10.09,25.822,7.631,34.69c-2.459,8.868-7.45,7.255-8.362,5.39C117.623,484.893,98.532,441.648,98.532,441.648
					L98.532,441.648z"/>
				<path style="fill-rule:evenodd;clip-rule:evenodd;fill:#363054;" d="M98.174,438.054c0,0,7.579-6.736,15.321-1.912
					c7.743,4.824,9.946,12.095,12.507,10.848c3.565-1.798-13.505-27.037-31.374-14.677L98.174,438.054z"/>
				<path style="fill-rule:evenodd;clip-rule:evenodd;fill:#FFB700;" d="M0.522,474.296c0,0-13.806,1.323-11.938,21.068
					c1.83,19.761,21.688,36.918,26.338,37.925c4.649,1.007,10.873-2.123,10.589-3.854C25.244,527.741,0.522,474.296,0.522,474.296
					L0.522,474.296z"/>
				<path style="fill-rule:evenodd;clip-rule:evenodd;fill:#F0A016;" d="M4.722,480.866c-6.386,2.846-13.739,2.748-10.963,18.238
					c1.73,9.407,11.29,25.32,19.329,29.799c8.039,4.479,10.434-0.222,9.71-2.165C22.089,524.831,4.722,480.866,4.722,480.866
					L4.722,480.866z"/>
				<path style="fill-rule:evenodd;clip-rule:evenodd;fill:#363054;" d="M2.415,478.086c0,0-10.118,0.662-12.124,9.561
					s1.622,15.575-1.065,16.522c-3.784,1.274-9.756-28.604,11.631-32.656L2.415,478.086z"/>
				<path style="fill-rule:evenodd;clip-rule:evenodd;fill:#58508C;" d="M72.969,371.334
					c16.239,38.844,32.493,77.725,48.731,116.568c9.812,23.471-91.196,65.698-101.008,42.227L-28.04,413.56
					c-7.633-18.26,8.768-42.559,36.664-54.221C36.482,347.694,65.335,353.074,72.969,371.334L72.969,371.334z"/>
				
					<rect x="5.638" y="429.366" transform="matrix(0.9226 -0.3857 0.3857 0.9226 -171.0322 38.0901)" style="fill-rule:evenodd;clip-rule:evenodd;fill:#363054;" width="7.559" height="31.901"/>
				<path style="fill-rule:evenodd;clip-rule:evenodd;fill:#F6EF9E;" d="M4.352,444.682l8.174-3.417
					c0.6-0.251,1.328,0.017,1.579,0.617l3.605,8.624c0.251,0.6-0.07,1.307-0.67,1.558l-8.174,3.417
					c-0.637,0.267-1.328-0.017-1.579-0.617l-3.605-8.624C3.43,445.64,3.714,444.949,4.352,444.682L4.352,444.682z"/>
				
					<rect x="65.44" y="404.358" transform="matrix(0.9226 -0.3857 0.3857 0.9226 -156.7559 59.2275)" style="fill-rule:evenodd;clip-rule:evenodd;fill:#363054;" width="7.599" height="31.901"/>
				<path style="fill-rule:evenodd;clip-rule:evenodd;fill:#F6EF9E;" d="M64.154,419.682l8.211-3.433
					c0.6-0.251,1.291,0.033,1.542,0.633l3.605,8.623c0.251,0.6-0.033,1.291-0.633,1.542l-8.211,3.433
					c-0.6,0.251-1.291-0.033-1.542-0.633l-3.605-8.623C63.271,420.624,63.554,419.932,64.154,419.682L64.154,419.682z"/>
				<path style="fill-rule:evenodd;clip-rule:evenodd;fill:#FFB700;" d="M16.07,475.769l69.551-29.076
					c3.524-1.473,7.618,0.207,9.092,3.731l16.16,38.656c7.696,18.409-73.11,56.595-82.374,34.436l-16.16-38.656
					C10.866,481.336,12.545,477.242,16.07,475.769L16.07,475.769z"/>
				<path style="fill-rule:evenodd;clip-rule:evenodd;fill:#363054;" d="M86.488,445.185l-72.476,30.299
					c-3.674,1.536-5.42,5.789-3.884,9.464c7.9,18.897,33.872,6.322,50.182-0.497c16.347-6.834,43.542-16.485,35.642-35.382
					C94.416,445.395,90.163,443.649,86.488,445.185L86.488,445.185z"/>
				<path style="fill-rule:evenodd;clip-rule:evenodd;fill:#FFB700;" d="M61.208,478.899c0.572,1.369-0.074,2.943-1.443,3.516
					c-1.369,0.572-2.943-0.074-3.516-1.443c-0.572-1.369,0.074-2.943,1.443-3.516C59.062,476.884,60.636,477.53,61.208,478.899z"/>
				<path style="fill-rule:evenodd;clip-rule:evenodd;fill:#F0A016;" d="M72.969,371.334l6.332,15.147
					c4.028,9.636-0.554,20.801-10.19,24.829L3.085,438.913c-9.598,4.013-20.764-0.569-24.792-10.205l-6.332-15.147
					c-7.633-18.26,8.768-42.559,36.664-54.221C36.482,347.694,65.335,353.074,72.969,371.334L72.969,371.334z"/>
				<path style="fill-rule:evenodd;clip-rule:evenodd;fill:#FFB700;" d="M-26.969,391.045c5.49-12.47,18.346-24.495,35.593-31.706
					c17.21-7.194,34.799-7.897,47.531-3.044l14.53,34.757c2.226,5.324-0.305,11.492-5.629,13.717L1.278,431.431
					c-5.324,2.226-11.492-0.305-13.717-5.629L-26.969,391.045z"/>
				<path style="fill-rule:evenodd;clip-rule:evenodd;fill:#F0A016;" d="M72.41,512.868c-14.688,6.273-29.288,10.438-42.887,12.467
					c12.719,17.675,85.439-16.778,81.739-35.008C100.306,498.784,87.136,506.58,72.41,512.868L72.41,512.868z"/>
			</g>
			<g>
				
					<rect x="-44.839" y="119.596" transform="matrix(0.7325 -0.6807 0.6807 0.7325 -109.2538 51.1155)" style="fill-rule:evenodd;clip-rule:evenodd;fill:#58508C;" width="110.515" height="89.979"/>
				
					<rect x="-71.655" y="130.133" transform="matrix(0.7325 -0.6807 0.6807 0.7325 -96.7823 25.1414)" style="fill-rule:evenodd;clip-rule:evenodd;fill:#FFA443;" width="110.515" height="11.194"/>
				<path style="fill-rule:evenodd;clip-rule:evenodd;fill:#F8E0A2;" d="M23.427,132.573l23.006,24.756
					c1.114,1.198,1.042,3.145-0.156,4.259l-9.871,9.173c-1.23,1.143-3.177,1.072-4.291-0.127L9.109,145.879
					c-1.143-1.23-1.072-3.177,0.158-4.32l9.871-9.173C20.336,131.272,22.284,131.344,23.427,132.573L23.427,132.573z"/>
			</g>
			<g>
				<path style="fill-rule:evenodd;clip-rule:evenodd;fill:#A3FBFF;" d="M273.011,450.36c14.783-3.986,31.041,1.973,39.483,15.698
					c10.281,16.715,5.036,38.568-11.678,48.849c-16.715,10.281-38.585,5.104-48.865-11.61c-8.442-13.726-6.427-30.923,3.798-42.32
					l-16.185-26.314l17.262-10.617L273.011,450.36z"/>
				<path style="fill-rule:evenodd;clip-rule:evenodd;fill:#31B0B9;" d="M255.649,428.832l-11.326,6.966l15.719,25.556l-1.717,1.926
					c-9.413,10.548-10.818,26.094-3.386,38.178c9.271,15.073,28.991,19.773,44.063,10.502c15.073-9.271,19.773-28.991,10.502-44.063
					c-7.432-12.083-21.941-17.841-35.601-14.198l-2.536,0.689L255.649,428.832z"/>
				<path style="fill-rule:evenodd;clip-rule:evenodd;fill:#94FFF9;" d="M238.075,431.865l16.883-10.384
					c1.852-1.139,4.275-0.598,5.414,1.254l1.036,1.684c1.113,1.81,0.53,4.258-1.323,5.398l-16.883,10.384
					c-1.81,1.114-4.258,0.53-5.372-1.28l-1.036-1.684C235.655,435.385,236.264,432.979,238.075,431.865L238.075,431.865z"/>
				<path style="fill-rule:evenodd;clip-rule:evenodd;fill:#E5FFFE;" d="M245.018,429.568l8.589-5.283
					c1.01-0.622,2.37-0.297,2.992,0.713l0,0c0.621,1.01,0.297,2.37-0.713,2.992l-8.589,5.283c-1.01,0.621-2.37,0.297-2.992-0.713
					l0,0C243.683,431.549,244.007,430.189,245.018,429.568L245.018,429.568z"/>
				<path style="fill-rule:evenodd;clip-rule:evenodd;fill:#40C9D8;" d="M245.981,438.492l14.062,22.862l-1.717,1.926
					c-4.522,5.102-7.234,11.355-7.951,17.831c13.543,9.66,32.435,10.749,47.802,1.297c5.179-3.185,9.457-7.268,12.781-11.865
					c-0.434-0.894-0.935-1.804-1.453-2.646c-7.432-12.083-21.941-17.841-35.601-14.198l-2.536,0.689l-14.062-22.862L245.981,438.492
					z"/>
				<path style="fill-rule:evenodd;clip-rule:evenodd;fill:#D71618;" d="M261.903,509.478c10.283,8.415,25.143,9.837,37.1,2.482
					c11.957-7.355,17.391-21.258,14.518-34.231L261.903,509.478z"/>
				<path style="fill-rule:evenodd;clip-rule:evenodd;fill:#F32301;" d="M313.171,492.917c1.319-4.932,1.44-10.113,0.35-15.187
					l-47.071,28.952c8.172,3.852,24.293,0.436,39.955-9.197C308.806,496.008,311.069,494.5,313.171,492.917L313.171,492.917z"/>
				<path style="fill-rule:evenodd;clip-rule:evenodd;fill:#50DDEC;" d="M288.802,456.316c6.327,1.041,10.928,5.407,10.179,9.756
					c-0.681,4.365-6.391,7.064-12.76,6.049c-6.369-1.015-10.928-5.407-10.247-9.772
					C276.698,457.958,282.407,455.259,288.802,456.316L288.802,456.316z"/>
				<path style="fill-rule:evenodd;clip-rule:evenodd;fill:#F32301;" d="M267.453,483.026c1.558-0.958,2.044-2.998,1.112-4.514
					c-0.958-1.558-2.972-2.002-4.53-1.044c-1.558,0.958-2.07,2.956-1.112,4.514C263.855,483.498,265.895,483.984,267.453,483.026
					L267.453,483.026z"/>
				<path style="fill-rule:evenodd;clip-rule:evenodd;fill:#F32301;" d="M266.886,500.785c1.179-0.725,1.552-2.289,0.827-3.468
					c-0.725-1.179-2.289-1.552-3.468-0.826c-1.221,0.751-1.594,2.315-0.869,3.494C264.101,501.163,265.665,501.536,266.886,500.785
					L266.886,500.785z"/>
				<path style="fill-rule:evenodd;clip-rule:evenodd;fill:#F32301;" d="M289.457,481.911c2.063-1.269,2.763-3.905,1.546-5.883
					c-1.217-1.979-3.885-2.543-5.948-1.274c-2.021,1.243-2.721,3.879-1.504,5.858C284.768,482.59,287.436,483.154,289.457,481.911
					L289.457,481.911z"/>
				<path style="fill-rule:evenodd;clip-rule:evenodd;fill:#F32301;" d="M269.378,464.549c1.053-0.647,1.393-2.075,0.72-3.17
					s-2.101-1.435-3.154-0.788c-1.01,0.621-1.351,2.049-0.677,3.144C266.939,464.831,268.367,465.171,269.378,464.549
					L269.378,464.549z"/>
				<path style="fill-rule:evenodd;clip-rule:evenodd;fill:#F32301;" d="M238.377,425.47c1.726-1.062,2.339-3.179,1.355-4.779
					c-0.984-1.6-3.15-2.008-4.877-0.947c-1.684,1.036-2.339,3.18-1.355,4.779C234.485,426.123,236.693,426.506,238.377,425.47
					L238.377,425.47z"/>
				<path style="fill-rule:evenodd;clip-rule:evenodd;fill:#F32301;" d="M241.01,412.767c2.568-1.58,3.337-4.954,1.757-7.522
					c-1.554-2.526-4.912-3.362-7.48-1.783c-2.568,1.58-3.337,4.954-1.783,7.48C235.083,413.51,238.441,414.346,241.01,412.767
					L241.01,412.767z"/>
				<path style="fill-rule:evenodd;clip-rule:evenodd;fill:#F32301;" d="M259.278,448.129c1.642-1.01,2.161-3.186,1.125-4.87
					c-1.036-1.684-3.212-2.203-4.854-1.193c-1.642,1.01-2.161,3.186-1.125,4.87C255.46,448.621,257.636,449.139,259.278,448.129
					L259.278,448.129z"/>
			</g>
			<g>
				<path style="fill-rule:evenodd;clip-rule:evenodd;fill:#FFB700;" d="M422.586-50.464l82.795-35.401l7.304,17.083l41.477,97.005
					l-74.737,31.956c-4.423,1.891-9.613-0.19-11.504-4.613L422.586-50.464z"/>
				
					<rect x="440.344" y="-45.13" transform="matrix(0.9195 -0.3931 0.3931 0.9195 55.6588 182.811)" style="fill-rule:evenodd;clip-rule:evenodd;fill:#FEFEFE;" width="67.514" height="1.327"/>
				
					<rect x="443.909" y="-36.792" transform="matrix(0.9195 -0.3931 0.3931 0.9195 52.6681 184.8846)" style="fill-rule:evenodd;clip-rule:evenodd;fill:#FEFEFE;" width="67.514" height="1.327"/>
				
					<rect x="447.474" y="-28.454" transform="matrix(0.9195 -0.3931 0.3931 0.9195 49.6771 186.9576)" style="fill-rule:evenodd;clip-rule:evenodd;fill:#FEFEFE;" width="67.514" height="1.327"/>
				
					<rect x="451.039" y="-20.116" transform="matrix(0.9195 -0.3931 0.3931 0.9195 46.686 189.0304)" style="fill-rule:evenodd;clip-rule:evenodd;fill:#FEFEFE;" width="67.514" height="1.327"/>
				
					<rect x="454.604" y="-11.778" transform="matrix(0.9195 -0.3931 0.3931 0.9195 43.695 191.1033)" style="fill-rule:evenodd;clip-rule:evenodd;fill:#FEFEFE;" width="67.514" height="1.327"/>
				
					<rect x="458.17" y="-3.44" transform="matrix(0.9195 -0.3931 0.3931 0.9195 40.7039 193.1761)" style="fill-rule:evenodd;clip-rule:evenodd;fill:#FEFEFE;" width="67.514" height="1.327"/>
				
					<rect x="461.729" y="4.899" transform="matrix(0.9195 -0.3931 0.3931 0.9195 37.7177 195.2464)" style="fill-rule:evenodd;clip-rule:evenodd;fill:#FEFEFE;" width="67.514" height="1.299"/>
				
					<rect x="465.294" y="13.237" transform="matrix(0.9195 -0.3931 0.3931 0.9195 34.7267 197.3195)" style="fill-rule:evenodd;clip-rule:evenodd;fill:#FEFEFE;" width="67.514" height="1.299"/>
				
					<rect x="468.86" y="21.575" transform="matrix(0.9195 -0.3931 0.3931 0.9195 31.7355 199.392)" style="fill-rule:evenodd;clip-rule:evenodd;fill:#FEFEFE;" width="67.514" height="1.299"/>
				<path style="fill-rule:evenodd;clip-rule:evenodd;fill:#FFCE54;" d="M487.484,56.733l71.254-30.467
					c4.423-1.891,6.504-7.081,4.613-11.504l-5-11.694L542.234,9.96l-63.196,27.021l5,11.694c1.891,4.423-0.19,9.613-4.613,11.504
					L487.484,56.733z"/>
			</g>
			<g>
				<polygon style="fill:#DB8A00;" points="737.307,-10.802 676.083,18.457 690.107,52.667 				"/>
				<polygon style="fill:#FFB700;" points="737.307,-10.802 642.779,20.256 676.083,18.457 				"/>
				<path style="fill:#FFA302;" d="M713.458,13.289c-0.676,0.332-16.435,4.275-16.435,4.275l-6.916,35.104l26.21-35.244
					L713.458,13.289z"/>
				<polygon style="fill:#FFB700;" points="697.023,17.564 737.307,-10.802 754.98,34.548 				"/>
			</g>
			<g>
				
					<rect x="381.978" y="-2.516" transform="matrix(0.9959 -0.0902 0.0902 0.9959 1.6521 35.2506)" style="fill-rule:evenodd;clip-rule:evenodd;fill:#FFAD10;" width="17.584" height="3.733"/>
				<path style="fill-rule:evenodd;clip-rule:evenodd;fill:#FFAD10;" d="M413.775-3.684l0.166,1.832
					c0.805,8.891-6.349,16.873-15.941,17.742l-17.351,1.572l-3.09-34.109l17.351-1.572C404.502-19.088,412.974-12.521,413.775-3.684
					L413.775-3.684z M380.713-14.217l2.602,28.721l14.441-1.308c7.975-0.722,13.948-7.348,13.275-14.784l-0.166-1.832
					c-0.669-7.382-7.736-12.827-15.711-12.104L380.713-14.217z"/>
				<path style="fill-rule:evenodd;clip-rule:evenodd;fill:#78201A;" d="M251.334-2.497l2.602,28.721L142.582,36.31
					c-7.931,0.719-14.943-5.128-15.661-13.06l0,0c-0.718-7.931,5.129-14.943,13.06-15.661L251.334-2.497z M155.287,17.34
					l0.596,6.574l-2.91,0.264l-0.596-6.574L155.287,17.34z M166.226,16.349l0.595,6.574l-2.91,0.264l-0.596-6.574L166.226,16.349z
					 M177.219,15.354l0.595,6.574l-2.964,0.268l-0.595-6.574L177.219,15.354z M188.157,14.363l0.596,6.574l-2.91,0.264l-0.595-6.574
					L188.157,14.363z M199.096,13.372l0.596,6.574l-2.91,0.264l-0.596-6.574L199.096,13.372z M210.089,12.376l0.596,6.574
					l-2.91,0.263l-0.596-6.574L210.089,12.376z"/>
				
					<rect x="305.714" y="-10.908" transform="matrix(0.9959 -0.0902 0.0902 0.9959 1.0894 31.1239)" style="fill-rule:evenodd;clip-rule:evenodd;fill:#78201A;" width="78.237" height="28.838"/>
				<path style="fill-rule:evenodd;clip-rule:evenodd;fill:#FFAD10;" d="M242.826,12.724c1.835,20.261,19.818,35.256,40.025,33.426
					c20.261-1.835,35.256-19.818,33.421-40.079c-1.83-20.207-19.813-35.202-40.074-33.367
					C255.99-25.465,240.995-7.483,242.826,12.724L242.826,12.724z"/>
				<path style="fill-rule:evenodd;clip-rule:evenodd;fill:#FFC95B;" d="M246.705,12.373c1.64,18.105,17.742,31.533,35.794,29.897
					c18.105-1.64,31.533-17.742,29.892-35.848c-1.635-18.052-17.737-31.479-35.843-29.839
					C258.497-21.781,245.07-5.679,246.705,12.373L246.705,12.373z"/>
				<path style="fill-rule:evenodd;clip-rule:evenodd;fill:#F2F2F2;" d="M250.908,11.992c1.415,15.627,15.284,27.192,30.911,25.776
					c15.573-1.411,27.192-15.284,25.776-30.911c-1.411-15.573-15.333-27.133-30.906-25.722
					C261.063-17.449,249.498-3.581,250.908,11.992L250.908,11.992z"/>
				<path style="fill-rule:evenodd;clip-rule:evenodd;fill:#FFFFFF;" d="M296.046,26.819c-17.605,0.03-32.652-13.188-34.242-30.745
					c-0.08-0.884-0.113-1.762-0.123-2.635c-5.292,4.89-8.346,12.083-7.65,19.773c1.195,13.194,12.905,22.958,26.099,21.763
					C286.518,34.396,292.113,31.329,296.046,26.819z"/>
				<path style="fill-rule:evenodd;clip-rule:evenodd;fill:#78201A;" d="M301.296,7.482c-3.668-3.905-18.168-0.853-19.472,0.351
					c-0.098,0.118-0.147,0.774-0.196,1.43c0.166,0.637,0.328,1.22,0.445,1.318C283.572,11.533,298.39,11.983,301.296,7.482
					L301.296,7.482z"/>
				<path style="fill-rule:evenodd;clip-rule:evenodd;fill:#78201A;" d="M288.77,25.133c1.417-4.149-6.271-13.449-7.672-13.919
					c-0.113-0.044-0.583,0.161-1.053,0.367c-0.402,0.362-0.803,0.725-0.794,0.832C279.113,13.892,284.439,24.71,288.77,25.133
					L288.77,25.133z"/>
				<path style="fill-rule:evenodd;clip-rule:evenodd;fill:#78201A;" d="M275.211,9.791c0.205,2.263,2.149,3.934,4.412,3.729
					c2.209-0.2,3.875-2.198,3.671-4.461c-0.2-2.209-2.198-3.875-4.408-3.675C276.623,5.588,275.01,7.582,275.211,9.791
					L275.211,9.791z"/>
			</g>
			<g>
				<path style="fill-rule:evenodd;clip-rule:evenodd;fill:#94CB58;" d="M11.663,256.049c0.529-16.905,16.939-20.602,16.88-20.536
					C27.828,236.24,26.669,257.428,11.663,256.049L11.663,256.049z"/>
				<path style="fill-rule:evenodd;clip-rule:evenodd;fill:#984304;" d="M12.606,259.474c4.354,4.903,5.315,8.189,5.315,8.189
					l1.705-0.966c0,0,0.586-0.783-5.426-8.158c-0.577-0.735-1.162-1.369-1.705-1.931c-3.017-3.054-5.497-3.966-6.61-3.432
					c-0.797,0.355-1.24,1.732-0.275,1.958C6.484,255.314,8.251,254.571,12.606,259.474L12.606,259.474z"/>
				<path style="fill-rule:evenodd;clip-rule:evenodd;fill:#F32301;" d="M16.946,263.387c-48.862,14.356-11.583,51.134,5.885,55.269
					c13.457,3.19,18.948-6.261,21.028-7.76c2.355-1.012,13.285-0.864,17.442-14.032C66.76,279.741,54.38,228.858,16.946,263.387
					L16.946,263.387z"/>
				<path style="fill:#984304;" d="M11.169,256.426c3.946-8.543,8.935-13.428,14.378-17.51l0,0c-3.31,2.905-6.159,5.774-8.602,8.96
					c-1.986,2.573-3.719,5.422-5.25,8.799L11.169,256.426z"/>
				<path style="fill-rule:evenodd;clip-rule:evenodd;fill:#85B44E;" d="M13.137,253.766c-0.413,0.749-0.787,1.508-1.172,2.305
					c14.739,1.08,16.139-19.344,16.578-20.558C28.575,235.398,21.871,253.163,13.137,253.766L13.137,253.766z"/>
				<path style="fill-rule:evenodd;clip-rule:evenodd;fill:#85B44E;" d="M11.701,255.32c0.273-0.541,0.535-1.043,0.798-1.546
					c-0.215-0.039-0.43-0.078-0.621-0.131C11.792,254.174,11.734,254.754,11.701,255.32L11.701,255.32z"/>
				<path style="fill-rule:evenodd;clip-rule:evenodd;fill:#D71618;" d="M51.689,256.546c7.326,20.147-19.097,53.492-44.208,53.589
					c5.228,4.344,10.933,7.484,15.351,8.521c13.457,3.19,18.948-6.261,21.028-7.76c2.355-1.012,13.285-0.864,17.442-14.032
					C64.43,287.046,61.702,266.096,51.689,256.546L51.689,256.546z"/>
				<path style="fill-rule:evenodd;clip-rule:evenodd;fill:#FB5C32;" d="M0.543,274.481c-10.926,9.118,0.119,30.377,9.181,16.264
					C14.342,283.56,7.755,268.465,0.543,274.481L0.543,274.481z"/>
			</g>
			<circle style="fill-rule:evenodd;clip-rule:evenodd;fill:#93278F;" cx="50" cy="85" r="6"/>
			<circle style="fill-rule:evenodd;clip-rule:evenodd;fill:#93278F;" cx="75.5" cy="11.5" r="4.5"/>
			<circle style="fill-rule:evenodd;clip-rule:evenodd;fill:#93278F;" cx="266.5" cy="251.5" r="5.5"/>
			<circle style="fill-rule:evenodd;clip-rule:evenodd;fill:#93278F;" cx="35" cy="336" r="9"/>
			<circle style="fill-rule:evenodd;clip-rule:evenodd;fill:#93278F;" cx="557.5" cy="481.5" r="7.5"/>
			<circle style="fill-rule:evenodd;clip-rule:evenodd;fill:#93278F;" cx="696" cy="330" r="8"/>
			<circle style="fill-rule:evenodd;clip-rule:evenodd;fill:#93278F;" cx="730.5" cy="366.5" r="6.5"/>
			<circle style="fill-rule:evenodd;clip-rule:evenodd;fill:#93278F;" cx="700" cy="95" r="10"/>
			<circle style="fill-rule:evenodd;clip-rule:evenodd;fill:#93278F;" cx="740.5" cy="151.5" r="4.5"/>
			<circle style="fill-rule:evenodd;clip-rule:evenodd;fill:#93278F;" cx="584.5" cy="17.5" r="4.5"/>
			<g>
				<circle style="fill-rule:evenodd;clip-rule:evenodd;fill:#F7931E;" cx="180" cy="480" r="7"/>
			</g>
			<circle style="fill-rule:evenodd;clip-rule:evenodd;fill:#F7931E;" cx="56.5" cy="216.5" r="6.5"/>
			<circle style="fill-rule:evenodd;clip-rule:evenodd;fill:#F7931E;" cx="475" cy="251" r="6"/>
			<circle style="fill-rule:evenodd;clip-rule:evenodd;fill:#F7931E;" cx="341" cy="481" r="7"/>
			<circle style="fill-rule:evenodd;clip-rule:evenodd;fill:#F7931E;" cx="583.5" cy="481.5" r="4.5"/>
			<circle style="fill-rule:evenodd;clip-rule:evenodd;fill:#F7931E;" cx="481" cy="466" r="5"/>
			<circle style="fill-rule:evenodd;clip-rule:evenodd;fill:#F7931E;" cx="721.5" cy="321.5" r="5.5"/>
			<circle style="fill-rule:evenodd;clip-rule:evenodd;fill:#F7931E;" cx="704" cy="360" r="4"/>
			<circle style="fill-rule:evenodd;clip-rule:evenodd;fill:#F7931E;" cx="721.5" cy="58.5" r="5.5"/>
			<circle style="fill-rule:evenodd;clip-rule:evenodd;fill:#F7931E;" cx="616.5" cy="16.5" r="4.5"/>
			<circle style="fill-rule:evenodd;clip-rule:evenodd;fill:#F7931E;" cx="419.5" cy="18.5" r="5.5"/>
			<circle style="fill-rule:evenodd;clip-rule:evenodd;fill:#F7931E;" cx="25.5" cy="15.5" r="3.5"/>
			<circle style="fill-rule:evenodd;clip-rule:evenodd;fill:#F7931E;" cx="99.5" cy="23.5" r="4.5"/>
			<circle style="fill-rule:evenodd;clip-rule:evenodd;fill:#F7931E;" cx="13" cy="79" r="5"/>
		</g>
	</g>
</g>
<g id="OBJECTS">
</g>
</svg>
